<?xml version="1.0" encoding="utf-8" standalone="no"?>
<!DOCTYPE svg PUBLIC "-//W3C//DTD SVG 1.1//EN"
  "http://www.w3.org/Graphics/SVG/1.1/DTD/svg11.dtd">
<svg xmlns:xlink="http://www.w3.org/1999/xlink" width="460.8pt" height="345.6pt" viewBox="0 0 460.8 345.6" xmlns="http://www.w3.org/2000/svg" version="1.1">
 <metadata>
  <rdf:RDF xmlns:dc="http://purl.org/dc/elements/1.1/" xmlns:cc="http://creativecommons.org/ns#" xmlns:rdf="http://www.w3.org/1999/02/22-rdf-syntax-ns#">
   <cc:Work>
    <dc:type rdf:resource="http://purl.org/dc/dcmitype/StillImage"/>
    <dc:date>2025-01-29T08:43:23.856402</dc:date>
    <dc:format>image/svg+xml</dc:format>
    <dc:creator>
     <cc:Agent>
      <dc:title>Matplotlib v3.10.0, https://matplotlib.org/</dc:title>
     </cc:Agent>
    </dc:creator>
   </cc:Work>
  </rdf:RDF>
 </metadata>
 <defs>
  <style type="text/css">*{stroke-linejoin: round; stroke-linecap: butt}</style>
 </defs>
 <g id="figure_1">
  <g id="patch_1">
   <path d="M 0 345.6 
L 460.8 345.6 
L 460.8 0 
L 0 0 
z
" style="fill: #ffffff"/>
  </g>
  <g id="axes_1">
   <g id="patch_2">
    <path d="M 57.6 307.584 
L 414.72 307.584 
L 414.72 41.472 
L 57.6 41.472 
z
" style="fill: #ffffff"/>
   </g>
   <g id="matplotlib.axis_1">
    <g id="xtick_1">
     <g id="line2d_1">
      <defs>
       <path id="m45e5c61bcf" d="M 0 0 
L 0 3.5 
" style="stroke: #000000; stroke-width: 0.8"/>
      </defs>
      <g>
       <use xlink:href="#m45e5c61bcf" x="73.832727" y="307.584" style="stroke: #000000; stroke-width: 0.8"/>
      </g>
     </g>
     <g id="text_1">
      <!-- 0 -->
      <g transform="translate(70.651477 322.182437) scale(0.1 -0.1)">
       <defs>
        <path id="DejaVuSans-30" d="M 2034 4250 
Q 1547 4250 1301 3770 
Q 1056 3291 1056 2328 
Q 1056 1369 1301 889 
Q 1547 409 2034 409 
Q 2525 409 2770 889 
Q 3016 1369 3016 2328 
Q 3016 3291 2770 3770 
Q 2525 4250 2034 4250 
z
M 2034 4750 
Q 2819 4750 3233 4129 
Q 3647 3509 3647 2328 
Q 3647 1150 3233 529 
Q 2819 -91 2034 -91 
Q 1250 -91 836 529 
Q 422 1150 422 2328 
Q 422 3509 836 4129 
Q 1250 4750 2034 4750 
z
" transform="scale(0.015625)"/>
       </defs>
       <use xlink:href="#DejaVuSans-30"/>
      </g>
     </g>
    </g>
    <g id="xtick_2">
     <g id="line2d_2">
      <g>
       <use xlink:href="#m45e5c61bcf" x="123.02281" y="307.584" style="stroke: #000000; stroke-width: 0.8"/>
      </g>
     </g>
     <g id="text_2">
      <!-- 25 -->
      <g transform="translate(116.66031 322.182437) scale(0.1 -0.1)">
       <defs>
        <path id="DejaVuSans-32" d="M 1228 531 
L 3431 531 
L 3431 0 
L 469 0 
L 469 531 
Q 828 903 1448 1529 
Q 2069 2156 2228 2338 
Q 2531 2678 2651 2914 
Q 2772 3150 2772 3378 
Q 2772 3750 2511 3984 
Q 2250 4219 1831 4219 
Q 1534 4219 1204 4116 
Q 875 4013 500 3803 
L 500 4441 
Q 881 4594 1212 4672 
Q 1544 4750 1819 4750 
Q 2544 4750 2975 4387 
Q 3406 4025 3406 3419 
Q 3406 3131 3298 2873 
Q 3191 2616 2906 2266 
Q 2828 2175 2409 1742 
Q 1991 1309 1228 531 
z
" transform="scale(0.015625)"/>
        <path id="DejaVuSans-35" d="M 691 4666 
L 3169 4666 
L 3169 4134 
L 1269 4134 
L 1269 2991 
Q 1406 3038 1543 3061 
Q 1681 3084 1819 3084 
Q 2600 3084 3056 2656 
Q 3513 2228 3513 1497 
Q 3513 744 3044 326 
Q 2575 -91 1722 -91 
Q 1428 -91 1123 -41 
Q 819 9 494 109 
L 494 744 
Q 775 591 1075 516 
Q 1375 441 1709 441 
Q 2250 441 2565 725 
Q 2881 1009 2881 1497 
Q 2881 1984 2565 2268 
Q 2250 2553 1709 2553 
Q 1456 2553 1204 2497 
Q 953 2441 691 2322 
L 691 4666 
z
" transform="scale(0.015625)"/>
       </defs>
       <use xlink:href="#DejaVuSans-32"/>
       <use xlink:href="#DejaVuSans-35" transform="translate(63.623047 0)"/>
      </g>
     </g>
    </g>
    <g id="xtick_3">
     <g id="line2d_3">
      <g>
       <use xlink:href="#m45e5c61bcf" x="172.212893" y="307.584" style="stroke: #000000; stroke-width: 0.8"/>
      </g>
     </g>
     <g id="text_3">
      <!-- 50 -->
      <g transform="translate(165.850393 322.182437) scale(0.1 -0.1)">
       <use xlink:href="#DejaVuSans-35"/>
       <use xlink:href="#DejaVuSans-30" transform="translate(63.623047 0)"/>
      </g>
     </g>
    </g>
    <g id="xtick_4">
     <g id="line2d_4">
      <g>
       <use xlink:href="#m45e5c61bcf" x="221.402975" y="307.584" style="stroke: #000000; stroke-width: 0.8"/>
      </g>
     </g>
     <g id="text_4">
      <!-- 75 -->
      <g transform="translate(215.040475 322.182437) scale(0.1 -0.1)">
       <defs>
        <path id="DejaVuSans-37" d="M 525 4666 
L 3525 4666 
L 3525 4397 
L 1831 0 
L 1172 0 
L 2766 4134 
L 525 4134 
L 525 4666 
z
" transform="scale(0.015625)"/>
       </defs>
       <use xlink:href="#DejaVuSans-37"/>
       <use xlink:href="#DejaVuSans-35" transform="translate(63.623047 0)"/>
      </g>
     </g>
    </g>
    <g id="xtick_5">
     <g id="line2d_5">
      <g>
       <use xlink:href="#m45e5c61bcf" x="270.593058" y="307.584" style="stroke: #000000; stroke-width: 0.8"/>
      </g>
     </g>
     <g id="text_5">
      <!-- 100 -->
      <g transform="translate(261.049308 322.182437) scale(0.1 -0.1)">
       <defs>
        <path id="DejaVuSans-31" d="M 794 531 
L 1825 531 
L 1825 4091 
L 703 3866 
L 703 4441 
L 1819 4666 
L 2450 4666 
L 2450 531 
L 3481 531 
L 3481 0 
L 794 0 
L 794 531 
z
" transform="scale(0.015625)"/>
       </defs>
       <use xlink:href="#DejaVuSans-31"/>
       <use xlink:href="#DejaVuSans-30" transform="translate(63.623047 0)"/>
       <use xlink:href="#DejaVuSans-30" transform="translate(127.246094 0)"/>
      </g>
     </g>
    </g>
    <g id="xtick_6">
     <g id="line2d_6">
      <g>
       <use xlink:href="#m45e5c61bcf" x="319.78314" y="307.584" style="stroke: #000000; stroke-width: 0.8"/>
      </g>
     </g>
     <g id="text_6">
      <!-- 125 -->
      <g transform="translate(310.23939 322.182437) scale(0.1 -0.1)">
       <use xlink:href="#DejaVuSans-31"/>
       <use xlink:href="#DejaVuSans-32" transform="translate(63.623047 0)"/>
       <use xlink:href="#DejaVuSans-35" transform="translate(127.246094 0)"/>
      </g>
     </g>
    </g>
    <g id="xtick_7">
     <g id="line2d_7">
      <g>
       <use xlink:href="#m45e5c61bcf" x="368.973223" y="307.584" style="stroke: #000000; stroke-width: 0.8"/>
      </g>
     </g>
     <g id="text_7">
      <!-- 150 -->
      <g transform="translate(359.429473 322.182437) scale(0.1 -0.1)">
       <use xlink:href="#DejaVuSans-31"/>
       <use xlink:href="#DejaVuSans-35" transform="translate(63.623047 0)"/>
       <use xlink:href="#DejaVuSans-30" transform="translate(127.246094 0)"/>
      </g>
     </g>
    </g>
   </g>
   <g id="matplotlib.axis_2">
    <g id="ytick_1">
     <g id="line2d_8">
      <defs>
       <path id="m46a072b275" d="M 0 0 
L -3.5 0 
" style="stroke: #000000; stroke-width: 0.8"/>
      </defs>
      <g>
       <use xlink:href="#m46a072b275" x="57.6" y="304.876784" style="stroke: #000000; stroke-width: 0.8"/>
      </g>
     </g>
     <g id="text_8">
      <!-- −2 -->
      <g transform="translate(35.857813 308.676003) scale(0.1 -0.1)">
       <defs>
        <path id="DejaVuSans-2212" d="M 678 2272 
L 4684 2272 
L 4684 1741 
L 678 1741 
L 678 2272 
z
" transform="scale(0.015625)"/>
       </defs>
       <use xlink:href="#DejaVuSans-2212"/>
       <use xlink:href="#DejaVuSans-32" transform="translate(83.789062 0)"/>
      </g>
     </g>
    </g>
    <g id="ytick_2">
     <g id="line2d_9">
      <g>
       <use xlink:href="#m46a072b275" x="57.6" y="266.518689" style="stroke: #000000; stroke-width: 0.8"/>
      </g>
     </g>
     <g id="text_9">
      <!-- −1 -->
      <g transform="translate(35.857813 270.317907) scale(0.1 -0.1)">
       <use xlink:href="#DejaVuSans-2212"/>
       <use xlink:href="#DejaVuSans-31" transform="translate(83.789062 0)"/>
      </g>
     </g>
    </g>
    <g id="ytick_3">
     <g id="line2d_10">
      <g>
       <use xlink:href="#m46a072b275" x="57.6" y="228.160593" style="stroke: #000000; stroke-width: 0.8"/>
      </g>
     </g>
     <g id="text_10">
      <!-- 0 -->
      <g transform="translate(44.2375 231.959812) scale(0.1 -0.1)">
       <use xlink:href="#DejaVuSans-30"/>
      </g>
     </g>
    </g>
    <g id="ytick_4">
     <g id="line2d_11">
      <g>
       <use xlink:href="#m46a072b275" x="57.6" y="189.802497" style="stroke: #000000; stroke-width: 0.8"/>
      </g>
     </g>
     <g id="text_11">
      <!-- 1 -->
      <g transform="translate(44.2375 193.601716) scale(0.1 -0.1)">
       <use xlink:href="#DejaVuSans-31"/>
      </g>
     </g>
    </g>
    <g id="ytick_5">
     <g id="line2d_12">
      <g>
       <use xlink:href="#m46a072b275" x="57.6" y="151.444401" style="stroke: #000000; stroke-width: 0.8"/>
      </g>
     </g>
     <g id="text_12">
      <!-- 2 -->
      <g transform="translate(44.2375 155.24362) scale(0.1 -0.1)">
       <use xlink:href="#DejaVuSans-32"/>
      </g>
     </g>
    </g>
    <g id="ytick_6">
     <g id="line2d_13">
      <g>
       <use xlink:href="#m46a072b275" x="57.6" y="113.086306" style="stroke: #000000; stroke-width: 0.8"/>
      </g>
     </g>
     <g id="text_13">
      <!-- 3 -->
      <g transform="translate(44.2375 116.885525) scale(0.1 -0.1)">
       <defs>
        <path id="DejaVuSans-33" d="M 2597 2516 
Q 3050 2419 3304 2112 
Q 3559 1806 3559 1356 
Q 3559 666 3084 287 
Q 2609 -91 1734 -91 
Q 1441 -91 1130 -33 
Q 819 25 488 141 
L 488 750 
Q 750 597 1062 519 
Q 1375 441 1716 441 
Q 2309 441 2620 675 
Q 2931 909 2931 1356 
Q 2931 1769 2642 2001 
Q 2353 2234 1838 2234 
L 1294 2234 
L 1294 2753 
L 1863 2753 
Q 2328 2753 2575 2939 
Q 2822 3125 2822 3475 
Q 2822 3834 2567 4026 
Q 2313 4219 1838 4219 
Q 1578 4219 1281 4162 
Q 984 4106 628 3988 
L 628 4550 
Q 988 4650 1302 4700 
Q 1616 4750 1894 4750 
Q 2613 4750 3031 4423 
Q 3450 4097 3450 3541 
Q 3450 3153 3228 2886 
Q 3006 2619 2597 2516 
z
" transform="scale(0.015625)"/>
       </defs>
       <use xlink:href="#DejaVuSans-33"/>
      </g>
     </g>
    </g>
    <g id="ytick_7">
     <g id="line2d_14">
      <g>
       <use xlink:href="#m46a072b275" x="57.6" y="74.72821" style="stroke: #000000; stroke-width: 0.8"/>
      </g>
     </g>
     <g id="text_14">
      <!-- 4 -->
      <g transform="translate(44.2375 78.527429) scale(0.1 -0.1)">
       <defs>
        <path id="DejaVuSans-34" d="M 2419 4116 
L 825 1625 
L 2419 1625 
L 2419 4116 
z
M 2253 4666 
L 3047 4666 
L 3047 1625 
L 3713 1625 
L 3713 1100 
L 3047 1100 
L 3047 0 
L 2419 0 
L 2419 1100 
L 313 1100 
L 313 1709 
L 2253 4666 
z
" transform="scale(0.015625)"/>
       </defs>
       <use xlink:href="#DejaVuSans-34"/>
      </g>
     </g>
    </g>
   </g>
   <g id="line2d_15">
    <path d="M 73.832727 236.114903 
L 75.800331 258.687338 
L 77.767934 262.265304 
L 79.735537 235.219598 
L 81.70314 178.501417 
L 83.670744 145.92941 
L 85.638347 205.640946 
L 87.60595 189.906613 
L 89.573554 250.717016 
L 91.541157 226.616796 
L 93.50876 220.411131 
L 95.476364 216.1253 
L 97.443967 203.203205 
L 99.41157 225.784113 
L 101.379174 265.250315 
L 103.346777 198.999715 
L 105.31438 218.327772 
L 107.281983 241.413545 
L 109.249587 251.783769 
L 111.21719 236.323291 
L 113.184793 225.576362 
L 115.152397 246.694282 
L 117.12 219.892117 
L 119.087603 169.183776 
L 121.055207 168.339153 
L 123.02281 215.173272 
L 124.990413 235.41736 
L 126.958017 229.893348 
L 128.92562 185.674011 
L 130.893223 188.461024 
L 132.860826 212.851991 
L 134.82843 233.983921 
L 136.796033 215.221672 
L 138.763636 162.881998 
L 140.73124 166.592399 
L 142.698843 123.050572 
L 144.666446 131.851767 
L 146.63405 213.091113 
L 148.601653 241.063511 
L 150.569256 240.743898 
L 152.53686 212.293497 
L 154.504463 219.307196 
L 156.472066 185.239131 
L 158.439669 208.954706 
L 160.407273 193.540207 
L 162.374876 187.180971 
L 164.342479 53.568 
L 166.310083 169.545964 
L 168.277686 172.149945 
L 172.212893 188.514367 
L 174.180496 178.671721 
L 176.148099 171.847698 
L 178.115702 171.115638 
L 180.083306 219.349269 
L 182.050909 219.003047 
L 184.018512 192.500433 
L 185.986116 201.11898 
L 187.953719 210.612805 
L 189.921322 192.549665 
L 191.888926 230.281402 
L 193.856529 225.947615 
L 195.824132 230.809255 
L 197.791736 246.52372 
L 199.759339 230.151317 
L 201.726942 239.125163 
L 203.694545 268.127137 
L 205.662149 213.094487 
L 207.629752 231.070099 
L 209.597355 231.149877 
L 211.564959 232.320051 
L 213.532562 228.155532 
L 215.500165 246.426027 
L 217.467769 215.08191 
L 219.435372 227.183527 
L 221.402975 120.196979 
L 223.370579 190.038282 
L 225.338182 229.42653 
L 227.305785 210.875489 
L 229.273388 232.827974 
L 231.240992 201.353455 
L 233.208595 241.769389 
L 235.176198 248.059219 
L 237.143802 199.047252 
L 239.111405 244.531459 
L 241.079008 239.471174 
L 243.046612 244.990634 
L 245.014215 229.710136 
L 246.981818 257.595835 
L 248.949421 244.472176 
L 250.917025 255.163479 
L 252.884628 266.534137 
L 254.852231 264.855251 
L 256.819835 234.632696 
L 258.787438 258.028461 
L 260.755041 249.045021 
L 262.722645 259.344849 
L 264.690248 256.801831 
L 266.657851 201.979825 
L 268.625455 130.575097 
L 270.593058 231.727072 
L 272.560661 176.073175 
L 274.528264 199.813443 
L 276.495868 217.121279 
L 278.463471 185.764105 
L 280.431074 229.544241 
L 282.398678 238.297002 
L 284.366281 207.096491 
L 286.333884 172.920432 
L 288.301488 236.01543 
L 290.269091 260.410294 
L 292.236694 283.285208 
L 294.204298 264.136653 
L 296.171901 273.87564 
L 298.139504 261.719328 
L 300.107107 266.859097 
L 302.074711 265.46245 
L 304.042314 209.328399 
L 306.009917 175.311806 
L 307.977521 219.934556 
L 309.945124 232.611745 
L 311.912727 248.262302 
L 313.880331 275.851316 
L 315.847934 260.090049 
L 317.815537 267.707173 
L 319.78314 284.439212 
L 321.750744 285.010994 
L 323.718347 285.417794 
L 325.68595 279.58138 
L 327.653554 267.651279 
L 329.621157 276.824316 
L 331.58876 245.052656 
L 333.556364 275.810655 
L 335.523967 286.832671 
L 337.49157 285.210057 
L 339.459174 241.439295 
L 341.426777 258.682709 
L 343.39438 284.578189 
L 345.361983 274.500868 
L 347.329587 295.488 
L 349.29719 256.882027 
L 351.264793 223.813385 
L 353.232397 265.546701 
L 355.2 276.827024 
L 357.167603 217.043273 
L 359.135207 220.750139 
L 361.10281 207.771234 
L 363.070413 218.507624 
L 365.038017 200.704108 
L 367.00562 236.659166 
L 368.973223 235.779806 
L 370.940826 240.926446 
L 372.90843 266.250079 
L 374.876033 257.604452 
L 376.843636 260.863448 
L 378.81124 254.176016 
L 380.778843 259.490706 
L 382.746446 263.413054 
L 384.71405 259.4448 
L 386.681653 263.980778 
L 388.649256 274.590994 
L 390.61686 244.779126 
L 392.584463 258.274603 
L 394.552066 255.888734 
L 396.519669 263.590952 
L 398.487273 278.407038 
L 398.487273 278.407038 
" clip-path="url(#p86d44d9925)" style="fill: none; stroke-dasharray: 5.55,2.4; stroke-dashoffset: 0; stroke: #1f77b4; stroke-width: 1.5"/>
   </g>
   <g id="line2d_16">
    <path d="M 73.832727 236.199498 
L 75.800331 258.753649 
L 77.767934 262.33828 
L 79.735537 235.254729 
L 81.70314 178.475969 
L 83.670744 145.879557 
L 85.638347 205.611938 
L 87.60595 189.89582 
L 89.573554 250.741706 
L 91.541157 226.632992 
L 93.50876 220.439199 
L 95.476364 216.13195 
L 97.443967 203.189485 
L 99.41157 225.790562 
L 101.379174 265.303882 
L 103.346777 199.003546 
L 105.31438 218.346729 
L 107.281983 241.427554 
L 109.249587 251.805289 
L 111.21719 236.329045 
L 113.184793 225.580891 
L 115.152397 246.710025 
L 117.12 219.894054 
L 119.087603 169.098666 
L 121.055207 168.341602 
L 123.02281 215.152236 
L 124.990413 235.408737 
L 126.958017 229.863678 
L 128.92562 185.664702 
L 130.893223 188.442847 
L 132.860826 212.82039 
L 134.82843 233.985967 
L 136.796033 215.214139 
L 138.763636 162.9196 
L 140.73124 166.547664 
L 142.698843 122.915549 
L 144.666446 131.829578 
L 146.63405 213.056021 
L 148.601653 241.0791 
L 150.569256 240.7284 
L 152.53686 212.228318 
L 154.504463 219.255804 
L 156.472066 185.188947 
L 158.439669 208.896041 
L 160.407273 193.45 
L 162.374876 187.060264 
L 164.342479 53.731731 
L 166.310083 169.526495 
L 168.277686 172.09472 
L 172.212893 188.508245 
L 174.180496 178.581803 
L 176.148099 171.869823 
L 178.115702 171.072322 
L 180.083306 219.273776 
L 182.050909 218.947038 
L 184.018512 192.401892 
L 185.986116 201.034113 
L 187.953719 210.641056 
L 189.921322 192.564637 
L 191.888926 230.219371 
L 193.856529 225.918861 
L 195.824132 230.75553 
L 197.791736 246.480135 
L 199.759339 230.281024 
L 201.726942 239.088969 
L 203.694545 268.157909 
L 205.662149 213.162354 
L 207.629752 231.038836 
L 209.597355 231.111722 
L 211.564959 232.317832 
L 213.532562 228.256198 
L 215.500165 246.383786 
L 217.467769 215.195917 
L 219.435372 227.212084 
L 221.402975 120.395 
L 223.370579 190.000157 
L 225.338182 229.38393 
L 227.305785 211.000493 
L 229.273388 232.857985 
L 231.240992 201.314923 
L 233.208595 241.761531 
L 235.176198 248.067148 
L 237.143802 199.105386 
L 239.111405 244.525449 
L 241.079008 239.422696 
L 243.046612 244.948536 
L 245.014215 229.687704 
L 246.981818 257.549286 
L 248.949421 244.496744 
L 250.917025 255.152043 
L 252.884628 266.545437 
L 254.852231 264.841357 
L 256.819835 234.581783 
L 258.787438 257.990844 
L 260.755041 249.070076 
L 262.722645 259.285815 
L 264.690248 256.744298 
L 266.657851 201.904748 
L 268.625455 130.412549 
L 270.593058 231.646634 
L 272.560661 175.925466 
L 274.528264 199.709689 
L 276.495868 217.205268 
L 278.463471 185.776277 
L 280.431074 229.425615 
L 282.398678 238.178896 
L 284.366281 206.958328 
L 286.333884 172.938148 
L 288.301488 235.916941 
L 290.269091 260.434339 
L 292.236694 283.301375 
L 294.204298 264.070565 
L 296.171901 273.777976 
L 298.139504 261.64302 
L 300.107107 266.838877 
L 302.074711 265.383483 
L 304.042314 209.612568 
L 306.009917 175.23737 
L 307.977521 220.023126 
L 309.945124 232.571809 
L 311.912727 248.250136 
L 313.880331 275.807994 
L 315.847934 260.096369 
L 317.815537 267.742186 
L 319.78314 284.344041 
L 321.750744 284.999264 
L 323.718347 285.391724 
L 325.68595 279.525767 
L 327.653554 267.622099 
L 329.621157 276.704864 
L 331.58876 245.303055 
L 333.556364 275.780837 
L 335.523967 286.85206 
L 337.49157 285.243755 
L 339.459174 241.483167 
L 341.426777 258.732806 
L 343.39438 284.631141 
L 345.361983 274.435845 
L 347.329587 295.442396 
L 349.29719 257.036116 
L 351.264793 224.015344 
L 353.232397 265.617116 
L 355.2 276.911165 
L 357.167603 217.334241 
L 359.135207 220.743672 
L 361.10281 208.19132 
L 363.070413 218.533811 
L 365.038017 200.857789 
L 367.00562 236.759096 
L 368.973223 236.152971 
L 370.940826 241.02793 
L 372.90843 266.254842 
L 374.876033 257.589498 
L 376.843636 260.812746 
L 378.81124 254.173228 
L 380.778843 259.454875 
L 382.746446 263.323012 
L 384.71405 259.393246 
L 386.681653 263.947658 
L 388.649256 274.482097 
L 390.61686 244.952005 
L 392.584463 258.170987 
L 394.552066 255.990804 
L 396.519669 263.538624 
L 398.487273 278.497708 
L 398.487273 278.497708 
" clip-path="url(#p86d44d9925)" style="fill: none; stroke: #ff7f0e; stroke-width: 1.5; stroke-linecap: square"/>
   </g>
   <g id="patch_3">
    <path d="M 57.6 307.584 
L 57.6 41.472 
" style="fill: none; stroke: #000000; stroke-width: 0.8; stroke-linejoin: miter; stroke-linecap: square"/>
   </g>
   <g id="patch_4">
    <path d="M 414.72 307.584 
L 414.72 41.472 
" style="fill: none; stroke: #000000; stroke-width: 0.8; stroke-linejoin: miter; stroke-linecap: square"/>
   </g>
   <g id="patch_5">
    <path d="M 57.6 307.584 
L 414.72 307.584 
" style="fill: none; stroke: #000000; stroke-width: 0.8; stroke-linejoin: miter; stroke-linecap: square"/>
   </g>
   <g id="patch_6">
    <path d="M 57.6 41.472 
L 414.72 41.472 
" style="fill: none; stroke: #000000; stroke-width: 0.8; stroke-linejoin: miter; stroke-linecap: square"/>
   </g>
   <g id="text_15">
    <!-- Comparatie intre y si y_rec (PCA(2)) -->
    <g transform="translate(128.424375 35.472) scale(0.12 -0.12)">
     <defs>
      <path id="DejaVuSans-43" d="M 4122 4306 
L 4122 3641 
Q 3803 3938 3442 4084 
Q 3081 4231 2675 4231 
Q 1875 4231 1450 3742 
Q 1025 3253 1025 2328 
Q 1025 1406 1450 917 
Q 1875 428 2675 428 
Q 3081 428 3442 575 
Q 3803 722 4122 1019 
L 4122 359 
Q 3791 134 3420 21 
Q 3050 -91 2638 -91 
Q 1578 -91 968 557 
Q 359 1206 359 2328 
Q 359 3453 968 4101 
Q 1578 4750 2638 4750 
Q 3056 4750 3426 4639 
Q 3797 4528 4122 4306 
z
" transform="scale(0.015625)"/>
      <path id="DejaVuSans-6f" d="M 1959 3097 
Q 1497 3097 1228 2736 
Q 959 2375 959 1747 
Q 959 1119 1226 758 
Q 1494 397 1959 397 
Q 2419 397 2687 759 
Q 2956 1122 2956 1747 
Q 2956 2369 2687 2733 
Q 2419 3097 1959 3097 
z
M 1959 3584 
Q 2709 3584 3137 3096 
Q 3566 2609 3566 1747 
Q 3566 888 3137 398 
Q 2709 -91 1959 -91 
Q 1206 -91 779 398 
Q 353 888 353 1747 
Q 353 2609 779 3096 
Q 1206 3584 1959 3584 
z
" transform="scale(0.015625)"/>
      <path id="DejaVuSans-6d" d="M 3328 2828 
Q 3544 3216 3844 3400 
Q 4144 3584 4550 3584 
Q 5097 3584 5394 3201 
Q 5691 2819 5691 2113 
L 5691 0 
L 5113 0 
L 5113 2094 
Q 5113 2597 4934 2840 
Q 4756 3084 4391 3084 
Q 3944 3084 3684 2787 
Q 3425 2491 3425 1978 
L 3425 0 
L 2847 0 
L 2847 2094 
Q 2847 2600 2669 2842 
Q 2491 3084 2119 3084 
Q 1678 3084 1418 2786 
Q 1159 2488 1159 1978 
L 1159 0 
L 581 0 
L 581 3500 
L 1159 3500 
L 1159 2956 
Q 1356 3278 1631 3431 
Q 1906 3584 2284 3584 
Q 2666 3584 2933 3390 
Q 3200 3197 3328 2828 
z
" transform="scale(0.015625)"/>
      <path id="DejaVuSans-70" d="M 1159 525 
L 1159 -1331 
L 581 -1331 
L 581 3500 
L 1159 3500 
L 1159 2969 
Q 1341 3281 1617 3432 
Q 1894 3584 2278 3584 
Q 2916 3584 3314 3078 
Q 3713 2572 3713 1747 
Q 3713 922 3314 415 
Q 2916 -91 2278 -91 
Q 1894 -91 1617 61 
Q 1341 213 1159 525 
z
M 3116 1747 
Q 3116 2381 2855 2742 
Q 2594 3103 2138 3103 
Q 1681 3103 1420 2742 
Q 1159 2381 1159 1747 
Q 1159 1113 1420 752 
Q 1681 391 2138 391 
Q 2594 391 2855 752 
Q 3116 1113 3116 1747 
z
" transform="scale(0.015625)"/>
      <path id="DejaVuSans-61" d="M 2194 1759 
Q 1497 1759 1228 1600 
Q 959 1441 959 1056 
Q 959 750 1161 570 
Q 1363 391 1709 391 
Q 2188 391 2477 730 
Q 2766 1069 2766 1631 
L 2766 1759 
L 2194 1759 
z
M 3341 1997 
L 3341 0 
L 2766 0 
L 2766 531 
Q 2569 213 2275 61 
Q 1981 -91 1556 -91 
Q 1019 -91 701 211 
Q 384 513 384 1019 
Q 384 1609 779 1909 
Q 1175 2209 1959 2209 
L 2766 2209 
L 2766 2266 
Q 2766 2663 2505 2880 
Q 2244 3097 1772 3097 
Q 1472 3097 1187 3025 
Q 903 2953 641 2809 
L 641 3341 
Q 956 3463 1253 3523 
Q 1550 3584 1831 3584 
Q 2591 3584 2966 3190 
Q 3341 2797 3341 1997 
z
" transform="scale(0.015625)"/>
      <path id="DejaVuSans-72" d="M 2631 2963 
Q 2534 3019 2420 3045 
Q 2306 3072 2169 3072 
Q 1681 3072 1420 2755 
Q 1159 2438 1159 1844 
L 1159 0 
L 581 0 
L 581 3500 
L 1159 3500 
L 1159 2956 
Q 1341 3275 1631 3429 
Q 1922 3584 2338 3584 
Q 2397 3584 2469 3576 
Q 2541 3569 2628 3553 
L 2631 2963 
z
" transform="scale(0.015625)"/>
      <path id="DejaVuSans-74" d="M 1172 4494 
L 1172 3500 
L 2356 3500 
L 2356 3053 
L 1172 3053 
L 1172 1153 
Q 1172 725 1289 603 
Q 1406 481 1766 481 
L 2356 481 
L 2356 0 
L 1766 0 
Q 1100 0 847 248 
Q 594 497 594 1153 
L 594 3053 
L 172 3053 
L 172 3500 
L 594 3500 
L 594 4494 
L 1172 4494 
z
" transform="scale(0.015625)"/>
      <path id="DejaVuSans-69" d="M 603 3500 
L 1178 3500 
L 1178 0 
L 603 0 
L 603 3500 
z
M 603 4863 
L 1178 4863 
L 1178 4134 
L 603 4134 
L 603 4863 
z
" transform="scale(0.015625)"/>
      <path id="DejaVuSans-65" d="M 3597 1894 
L 3597 1613 
L 953 1613 
Q 991 1019 1311 708 
Q 1631 397 2203 397 
Q 2534 397 2845 478 
Q 3156 559 3463 722 
L 3463 178 
Q 3153 47 2828 -22 
Q 2503 -91 2169 -91 
Q 1331 -91 842 396 
Q 353 884 353 1716 
Q 353 2575 817 3079 
Q 1281 3584 2069 3584 
Q 2775 3584 3186 3129 
Q 3597 2675 3597 1894 
z
M 3022 2063 
Q 3016 2534 2758 2815 
Q 2500 3097 2075 3097 
Q 1594 3097 1305 2825 
Q 1016 2553 972 2059 
L 3022 2063 
z
" transform="scale(0.015625)"/>
      <path id="DejaVuSans-20" transform="scale(0.015625)"/>
      <path id="DejaVuSans-6e" d="M 3513 2113 
L 3513 0 
L 2938 0 
L 2938 2094 
Q 2938 2591 2744 2837 
Q 2550 3084 2163 3084 
Q 1697 3084 1428 2787 
Q 1159 2491 1159 1978 
L 1159 0 
L 581 0 
L 581 3500 
L 1159 3500 
L 1159 2956 
Q 1366 3272 1645 3428 
Q 1925 3584 2291 3584 
Q 2894 3584 3203 3211 
Q 3513 2838 3513 2113 
z
" transform="scale(0.015625)"/>
      <path id="DejaVuSans-79" d="M 2059 -325 
Q 1816 -950 1584 -1140 
Q 1353 -1331 966 -1331 
L 506 -1331 
L 506 -850 
L 844 -850 
Q 1081 -850 1212 -737 
Q 1344 -625 1503 -206 
L 1606 56 
L 191 3500 
L 800 3500 
L 1894 763 
L 2988 3500 
L 3597 3500 
L 2059 -325 
z
" transform="scale(0.015625)"/>
      <path id="DejaVuSans-73" d="M 2834 3397 
L 2834 2853 
Q 2591 2978 2328 3040 
Q 2066 3103 1784 3103 
Q 1356 3103 1142 2972 
Q 928 2841 928 2578 
Q 928 2378 1081 2264 
Q 1234 2150 1697 2047 
L 1894 2003 
Q 2506 1872 2764 1633 
Q 3022 1394 3022 966 
Q 3022 478 2636 193 
Q 2250 -91 1575 -91 
Q 1294 -91 989 -36 
Q 684 19 347 128 
L 347 722 
Q 666 556 975 473 
Q 1284 391 1588 391 
Q 1994 391 2212 530 
Q 2431 669 2431 922 
Q 2431 1156 2273 1281 
Q 2116 1406 1581 1522 
L 1381 1569 
Q 847 1681 609 1914 
Q 372 2147 372 2553 
Q 372 3047 722 3315 
Q 1072 3584 1716 3584 
Q 2034 3584 2315 3537 
Q 2597 3491 2834 3397 
z
" transform="scale(0.015625)"/>
      <path id="DejaVuSans-5f" d="M 3263 -1063 
L 3263 -1509 
L -63 -1509 
L -63 -1063 
L 3263 -1063 
z
" transform="scale(0.015625)"/>
      <path id="DejaVuSans-63" d="M 3122 3366 
L 3122 2828 
Q 2878 2963 2633 3030 
Q 2388 3097 2138 3097 
Q 1578 3097 1268 2742 
Q 959 2388 959 1747 
Q 959 1106 1268 751 
Q 1578 397 2138 397 
Q 2388 397 2633 464 
Q 2878 531 3122 666 
L 3122 134 
Q 2881 22 2623 -34 
Q 2366 -91 2075 -91 
Q 1284 -91 818 406 
Q 353 903 353 1747 
Q 353 2603 823 3093 
Q 1294 3584 2113 3584 
Q 2378 3584 2631 3529 
Q 2884 3475 3122 3366 
z
" transform="scale(0.015625)"/>
      <path id="DejaVuSans-28" d="M 1984 4856 
Q 1566 4138 1362 3434 
Q 1159 2731 1159 2009 
Q 1159 1288 1364 580 
Q 1569 -128 1984 -844 
L 1484 -844 
Q 1016 -109 783 600 
Q 550 1309 550 2009 
Q 550 2706 781 3412 
Q 1013 4119 1484 4856 
L 1984 4856 
z
" transform="scale(0.015625)"/>
      <path id="DejaVuSans-50" d="M 1259 4147 
L 1259 2394 
L 2053 2394 
Q 2494 2394 2734 2622 
Q 2975 2850 2975 3272 
Q 2975 3691 2734 3919 
Q 2494 4147 2053 4147 
L 1259 4147 
z
M 628 4666 
L 2053 4666 
Q 2838 4666 3239 4311 
Q 3641 3956 3641 3272 
Q 3641 2581 3239 2228 
Q 2838 1875 2053 1875 
L 1259 1875 
L 1259 0 
L 628 0 
L 628 4666 
z
" transform="scale(0.015625)"/>
      <path id="DejaVuSans-41" d="M 2188 4044 
L 1331 1722 
L 3047 1722 
L 2188 4044 
z
M 1831 4666 
L 2547 4666 
L 4325 0 
L 3669 0 
L 3244 1197 
L 1141 1197 
L 716 0 
L 50 0 
L 1831 4666 
z
" transform="scale(0.015625)"/>
      <path id="DejaVuSans-29" d="M 513 4856 
L 1013 4856 
Q 1481 4119 1714 3412 
Q 1947 2706 1947 2009 
Q 1947 1309 1714 600 
Q 1481 -109 1013 -844 
L 513 -844 
Q 928 -128 1133 580 
Q 1338 1288 1338 2009 
Q 1338 2731 1133 3434 
Q 928 4138 513 4856 
z
" transform="scale(0.015625)"/>
     </defs>
     <use xlink:href="#DejaVuSans-43"/>
     <use xlink:href="#DejaVuSans-6f" transform="translate(69.824219 0)"/>
     <use xlink:href="#DejaVuSans-6d" transform="translate(131.005859 0)"/>
     <use xlink:href="#DejaVuSans-70" transform="translate(228.417969 0)"/>
     <use xlink:href="#DejaVuSans-61" transform="translate(291.894531 0)"/>
     <use xlink:href="#DejaVuSans-72" transform="translate(353.173828 0)"/>
     <use xlink:href="#DejaVuSans-61" transform="translate(394.287109 0)"/>
     <use xlink:href="#DejaVuSans-74" transform="translate(455.566406 0)"/>
     <use xlink:href="#DejaVuSans-69" transform="translate(494.775391 0)"/>
     <use xlink:href="#DejaVuSans-65" transform="translate(522.558594 0)"/>
     <use xlink:href="#DejaVuSans-20" transform="translate(584.082031 0)"/>
     <use xlink:href="#DejaVuSans-69" transform="translate(615.869141 0)"/>
     <use xlink:href="#DejaVuSans-6e" transform="translate(643.652344 0)"/>
     <use xlink:href="#DejaVuSans-74" transform="translate(707.03125 0)"/>
     <use xlink:href="#DejaVuSans-72" transform="translate(746.240234 0)"/>
     <use xlink:href="#DejaVuSans-65" transform="translate(785.103516 0)"/>
     <use xlink:href="#DejaVuSans-20" transform="translate(846.626953 0)"/>
     <use xlink:href="#DejaVuSans-79" transform="translate(878.414062 0)"/>
     <use xlink:href="#DejaVuSans-20" transform="translate(937.59375 0)"/>
     <use xlink:href="#DejaVuSans-73" transform="translate(969.380859 0)"/>
     <use xlink:href="#DejaVuSans-69" transform="translate(1021.480469 0)"/>
     <use xlink:href="#DejaVuSans-20" transform="translate(1049.263672 0)"/>
     <use xlink:href="#DejaVuSans-79" transform="translate(1081.050781 0)"/>
     <use xlink:href="#DejaVuSans-5f" transform="translate(1140.230469 0)"/>
     <use xlink:href="#DejaVuSans-72" transform="translate(1190.230469 0)"/>
     <use xlink:href="#DejaVuSans-65" transform="translate(1229.09375 0)"/>
     <use xlink:href="#DejaVuSans-63" transform="translate(1290.617188 0)"/>
     <use xlink:href="#DejaVuSans-20" transform="translate(1345.597656 0)"/>
     <use xlink:href="#DejaVuSans-28" transform="translate(1377.384766 0)"/>
     <use xlink:href="#DejaVuSans-50" transform="translate(1416.398438 0)"/>
     <use xlink:href="#DejaVuSans-43" transform="translate(1476.701172 0)"/>
     <use xlink:href="#DejaVuSans-41" transform="translate(1546.525391 0)"/>
     <use xlink:href="#DejaVuSans-28" transform="translate(1614.933594 0)"/>
     <use xlink:href="#DejaVuSans-32" transform="translate(1653.947266 0)"/>
     <use xlink:href="#DejaVuSans-29" transform="translate(1717.570312 0)"/>
     <use xlink:href="#DejaVuSans-29" transform="translate(1756.583984 0)"/>
    </g>
   </g>
  </g>
 </g>
 <defs>
  <clipPath id="p86d44d9925">
   <rect x="57.6" y="41.472" width="357.12" height="266.112"/>
  </clipPath>
 </defs>
</svg>
