<?xml version="1.0" encoding="utf-8" standalone="no"?>
<!DOCTYPE svg PUBLIC "-//W3C//DTD SVG 1.1//EN"
  "http://www.w3.org/Graphics/SVG/1.1/DTD/svg11.dtd">
<svg xmlns:xlink="http://www.w3.org/1999/xlink" width="460.8pt" height="345.6pt" viewBox="0 0 460.8 345.6" xmlns="http://www.w3.org/2000/svg" version="1.1">
 <metadata>
  <rdf:RDF xmlns:dc="http://purl.org/dc/elements/1.1/" xmlns:cc="http://creativecommons.org/ns#" xmlns:rdf="http://www.w3.org/1999/02/22-rdf-syntax-ns#">
   <cc:Work>
    <dc:type rdf:resource="http://purl.org/dc/dcmitype/StillImage"/>
    <dc:date>2025-01-29T08:43:23.737845</dc:date>
    <dc:format>image/svg+xml</dc:format>
    <dc:creator>
     <cc:Agent>
      <dc:title>Matplotlib v3.10.0, https://matplotlib.org/</dc:title>
     </cc:Agent>
    </dc:creator>
   </cc:Work>
  </rdf:RDF>
 </metadata>
 <defs>
  <style type="text/css">*{stroke-linejoin: round; stroke-linecap: butt}</style>
 </defs>
 <g id="figure_1">
  <g id="patch_1">
   <path d="M 0 345.6 
L 460.8 345.6 
L 460.8 0 
L 0 0 
z
" style="fill: #ffffff"/>
  </g>
  <g id="axes_1">
   <g id="patch_2">
    <path d="M 57.6 307.584 
L 414.72 307.584 
L 414.72 41.472 
L 57.6 41.472 
z
" style="fill: #ffffff"/>
   </g>
   <g id="matplotlib.axis_1">
    <g id="xtick_1">
     <g id="line2d_1">
      <defs>
       <path id="med3d86083c" d="M 0 0 
L 0 3.5 
" style="stroke: #000000; stroke-width: 0.8"/>
      </defs>
      <g>
       <use xlink:href="#med3d86083c" x="73.832727" y="307.584" style="stroke: #000000; stroke-width: 0.8"/>
      </g>
     </g>
     <g id="text_1">
      <!-- 0 -->
      <g transform="translate(70.651477 322.182437) scale(0.1 -0.1)">
       <defs>
        <path id="DejaVuSans-30" d="M 2034 4250 
Q 1547 4250 1301 3770 
Q 1056 3291 1056 2328 
Q 1056 1369 1301 889 
Q 1547 409 2034 409 
Q 2525 409 2770 889 
Q 3016 1369 3016 2328 
Q 3016 3291 2770 3770 
Q 2525 4250 2034 4250 
z
M 2034 4750 
Q 2819 4750 3233 4129 
Q 3647 3509 3647 2328 
Q 3647 1150 3233 529 
Q 2819 -91 2034 -91 
Q 1250 -91 836 529 
Q 422 1150 422 2328 
Q 422 3509 836 4129 
Q 1250 4750 2034 4750 
z
" transform="scale(0.015625)"/>
       </defs>
       <use xlink:href="#DejaVuSans-30"/>
      </g>
     </g>
    </g>
    <g id="xtick_2">
     <g id="line2d_2">
      <g>
       <use xlink:href="#med3d86083c" x="123.02281" y="307.584" style="stroke: #000000; stroke-width: 0.8"/>
      </g>
     </g>
     <g id="text_2">
      <!-- 25 -->
      <g transform="translate(116.66031 322.182437) scale(0.1 -0.1)">
       <defs>
        <path id="DejaVuSans-32" d="M 1228 531 
L 3431 531 
L 3431 0 
L 469 0 
L 469 531 
Q 828 903 1448 1529 
Q 2069 2156 2228 2338 
Q 2531 2678 2651 2914 
Q 2772 3150 2772 3378 
Q 2772 3750 2511 3984 
Q 2250 4219 1831 4219 
Q 1534 4219 1204 4116 
Q 875 4013 500 3803 
L 500 4441 
Q 881 4594 1212 4672 
Q 1544 4750 1819 4750 
Q 2544 4750 2975 4387 
Q 3406 4025 3406 3419 
Q 3406 3131 3298 2873 
Q 3191 2616 2906 2266 
Q 2828 2175 2409 1742 
Q 1991 1309 1228 531 
z
" transform="scale(0.015625)"/>
        <path id="DejaVuSans-35" d="M 691 4666 
L 3169 4666 
L 3169 4134 
L 1269 4134 
L 1269 2991 
Q 1406 3038 1543 3061 
Q 1681 3084 1819 3084 
Q 2600 3084 3056 2656 
Q 3513 2228 3513 1497 
Q 3513 744 3044 326 
Q 2575 -91 1722 -91 
Q 1428 -91 1123 -41 
Q 819 9 494 109 
L 494 744 
Q 775 591 1075 516 
Q 1375 441 1709 441 
Q 2250 441 2565 725 
Q 2881 1009 2881 1497 
Q 2881 1984 2565 2268 
Q 2250 2553 1709 2553 
Q 1456 2553 1204 2497 
Q 953 2441 691 2322 
L 691 4666 
z
" transform="scale(0.015625)"/>
       </defs>
       <use xlink:href="#DejaVuSans-32"/>
       <use xlink:href="#DejaVuSans-35" transform="translate(63.623047 0)"/>
      </g>
     </g>
    </g>
    <g id="xtick_3">
     <g id="line2d_3">
      <g>
       <use xlink:href="#med3d86083c" x="172.212893" y="307.584" style="stroke: #000000; stroke-width: 0.8"/>
      </g>
     </g>
     <g id="text_3">
      <!-- 50 -->
      <g transform="translate(165.850393 322.182437) scale(0.1 -0.1)">
       <use xlink:href="#DejaVuSans-35"/>
       <use xlink:href="#DejaVuSans-30" transform="translate(63.623047 0)"/>
      </g>
     </g>
    </g>
    <g id="xtick_4">
     <g id="line2d_4">
      <g>
       <use xlink:href="#med3d86083c" x="221.402975" y="307.584" style="stroke: #000000; stroke-width: 0.8"/>
      </g>
     </g>
     <g id="text_4">
      <!-- 75 -->
      <g transform="translate(215.040475 322.182437) scale(0.1 -0.1)">
       <defs>
        <path id="DejaVuSans-37" d="M 525 4666 
L 3525 4666 
L 3525 4397 
L 1831 0 
L 1172 0 
L 2766 4134 
L 525 4134 
L 525 4666 
z
" transform="scale(0.015625)"/>
       </defs>
       <use xlink:href="#DejaVuSans-37"/>
       <use xlink:href="#DejaVuSans-35" transform="translate(63.623047 0)"/>
      </g>
     </g>
    </g>
    <g id="xtick_5">
     <g id="line2d_5">
      <g>
       <use xlink:href="#med3d86083c" x="270.593058" y="307.584" style="stroke: #000000; stroke-width: 0.8"/>
      </g>
     </g>
     <g id="text_5">
      <!-- 100 -->
      <g transform="translate(261.049308 322.182437) scale(0.1 -0.1)">
       <defs>
        <path id="DejaVuSans-31" d="M 794 531 
L 1825 531 
L 1825 4091 
L 703 3866 
L 703 4441 
L 1819 4666 
L 2450 4666 
L 2450 531 
L 3481 531 
L 3481 0 
L 794 0 
L 794 531 
z
" transform="scale(0.015625)"/>
       </defs>
       <use xlink:href="#DejaVuSans-31"/>
       <use xlink:href="#DejaVuSans-30" transform="translate(63.623047 0)"/>
       <use xlink:href="#DejaVuSans-30" transform="translate(127.246094 0)"/>
      </g>
     </g>
    </g>
    <g id="xtick_6">
     <g id="line2d_6">
      <g>
       <use xlink:href="#med3d86083c" x="319.78314" y="307.584" style="stroke: #000000; stroke-width: 0.8"/>
      </g>
     </g>
     <g id="text_6">
      <!-- 125 -->
      <g transform="translate(310.23939 322.182437) scale(0.1 -0.1)">
       <use xlink:href="#DejaVuSans-31"/>
       <use xlink:href="#DejaVuSans-32" transform="translate(63.623047 0)"/>
       <use xlink:href="#DejaVuSans-35" transform="translate(127.246094 0)"/>
      </g>
     </g>
    </g>
    <g id="xtick_7">
     <g id="line2d_7">
      <g>
       <use xlink:href="#med3d86083c" x="368.973223" y="307.584" style="stroke: #000000; stroke-width: 0.8"/>
      </g>
     </g>
     <g id="text_7">
      <!-- 150 -->
      <g transform="translate(359.429473 322.182437) scale(0.1 -0.1)">
       <use xlink:href="#DejaVuSans-31"/>
       <use xlink:href="#DejaVuSans-35" transform="translate(63.623047 0)"/>
       <use xlink:href="#DejaVuSans-30" transform="translate(127.246094 0)"/>
      </g>
     </g>
    </g>
   </g>
   <g id="matplotlib.axis_2">
    <g id="ytick_1">
     <g id="line2d_8">
      <defs>
       <path id="m75ce433fb5" d="M 0 0 
L -3.5 0 
" style="stroke: #000000; stroke-width: 0.8"/>
      </defs>
      <g>
       <use xlink:href="#m75ce433fb5" x="57.6" y="304.930559" style="stroke: #000000; stroke-width: 0.8"/>
      </g>
     </g>
     <g id="text_8">
      <!-- −2 -->
      <g transform="translate(35.857813 308.729778) scale(0.1 -0.1)">
       <defs>
        <path id="DejaVuSans-2212" d="M 678 2272 
L 4684 2272 
L 4684 1741 
L 678 1741 
L 678 2272 
z
" transform="scale(0.015625)"/>
       </defs>
       <use xlink:href="#DejaVuSans-2212"/>
       <use xlink:href="#DejaVuSans-32" transform="translate(83.789062 0)"/>
      </g>
     </g>
    </g>
    <g id="ytick_2">
     <g id="line2d_9">
      <g>
       <use xlink:href="#m75ce433fb5" x="57.6" y="266.539243" style="stroke: #000000; stroke-width: 0.8"/>
      </g>
     </g>
     <g id="text_9">
      <!-- −1 -->
      <g transform="translate(35.857813 270.338462) scale(0.1 -0.1)">
       <use xlink:href="#DejaVuSans-2212"/>
       <use xlink:href="#DejaVuSans-31" transform="translate(83.789062 0)"/>
      </g>
     </g>
    </g>
    <g id="ytick_3">
     <g id="line2d_10">
      <g>
       <use xlink:href="#m75ce433fb5" x="57.6" y="228.147927" style="stroke: #000000; stroke-width: 0.8"/>
      </g>
     </g>
     <g id="text_10">
      <!-- 0 -->
      <g transform="translate(44.2375 231.947146) scale(0.1 -0.1)">
       <use xlink:href="#DejaVuSans-30"/>
      </g>
     </g>
    </g>
    <g id="ytick_4">
     <g id="line2d_11">
      <g>
       <use xlink:href="#m75ce433fb5" x="57.6" y="189.756611" style="stroke: #000000; stroke-width: 0.8"/>
      </g>
     </g>
     <g id="text_11">
      <!-- 1 -->
      <g transform="translate(44.2375 193.55583) scale(0.1 -0.1)">
       <use xlink:href="#DejaVuSans-31"/>
      </g>
     </g>
    </g>
    <g id="ytick_5">
     <g id="line2d_12">
      <g>
       <use xlink:href="#m75ce433fb5" x="57.6" y="151.365295" style="stroke: #000000; stroke-width: 0.8"/>
      </g>
     </g>
     <g id="text_12">
      <!-- 2 -->
      <g transform="translate(44.2375 155.164514) scale(0.1 -0.1)">
       <use xlink:href="#DejaVuSans-32"/>
      </g>
     </g>
    </g>
    <g id="ytick_6">
     <g id="line2d_13">
      <g>
       <use xlink:href="#m75ce433fb5" x="57.6" y="112.973979" style="stroke: #000000; stroke-width: 0.8"/>
      </g>
     </g>
     <g id="text_13">
      <!-- 3 -->
      <g transform="translate(44.2375 116.773198) scale(0.1 -0.1)">
       <defs>
        <path id="DejaVuSans-33" d="M 2597 2516 
Q 3050 2419 3304 2112 
Q 3559 1806 3559 1356 
Q 3559 666 3084 287 
Q 2609 -91 1734 -91 
Q 1441 -91 1130 -33 
Q 819 25 488 141 
L 488 750 
Q 750 597 1062 519 
Q 1375 441 1716 441 
Q 2309 441 2620 675 
Q 2931 909 2931 1356 
Q 2931 1769 2642 2001 
Q 2353 2234 1838 2234 
L 1294 2234 
L 1294 2753 
L 1863 2753 
Q 2328 2753 2575 2939 
Q 2822 3125 2822 3475 
Q 2822 3834 2567 4026 
Q 2313 4219 1838 4219 
Q 1578 4219 1281 4162 
Q 984 4106 628 3988 
L 628 4550 
Q 988 4650 1302 4700 
Q 1616 4750 1894 4750 
Q 2613 4750 3031 4423 
Q 3450 4097 3450 3541 
Q 3450 3153 3228 2886 
Q 3006 2619 2597 2516 
z
" transform="scale(0.015625)"/>
       </defs>
       <use xlink:href="#DejaVuSans-33"/>
      </g>
     </g>
    </g>
    <g id="ytick_7">
     <g id="line2d_14">
      <g>
       <use xlink:href="#m75ce433fb5" x="57.6" y="74.582663" style="stroke: #000000; stroke-width: 0.8"/>
      </g>
     </g>
     <g id="text_14">
      <!-- 4 -->
      <g transform="translate(44.2375 78.381881) scale(0.1 -0.1)">
       <defs>
        <path id="DejaVuSans-34" d="M 2419 4116 
L 825 1625 
L 2419 1625 
L 2419 4116 
z
M 2253 4666 
L 3047 4666 
L 3047 1625 
L 3713 1625 
L 3713 1100 
L 3047 1100 
L 3047 0 
L 2419 0 
L 2419 1100 
L 313 1100 
L 313 1709 
L 2253 4666 
z
" transform="scale(0.015625)"/>
       </defs>
       <use xlink:href="#DejaVuSans-34"/>
      </g>
     </g>
    </g>
   </g>
   <g id="line2d_15">
    <path d="M 73.832727 192.070211 
L 75.800331 192.778625 
L 77.767934 193.244873 
L 79.735537 192.232458 
L 81.70314 190.199057 
L 83.670744 189.698923 
L 85.638347 194.39662 
L 87.60595 193.9146 
L 89.573554 197.779723 
L 91.541157 197.121945 
L 93.50876 196.819629 
L 95.476364 197.422964 
L 97.443967 197.798921 
L 101.379174 202.493753 
L 103.346777 199.540719 
L 105.31438 201.381955 
L 107.281983 202.231457 
L 109.249587 203.430479 
L 111.21719 203.295949 
L 113.184793 201.531469 
L 115.152397 203.670125 
L 117.12 204.00763 
L 119.087603 203.488801 
L 121.055207 203.362144 
L 123.02281 206.810701 
L 124.990413 208.838466 
L 126.958017 209.484074 
L 128.92562 207.766968 
L 130.893223 206.939823 
L 132.860826 210.007341 
L 134.82843 211.28519 
L 136.796033 210.22727 
L 138.763636 204.42118 
L 140.73124 202.60745 
L 142.698843 206.837807 
L 144.666446 209.992208 
L 146.63405 214.864732 
L 148.601653 216.016606 
L 152.53686 214.541062 
L 154.504463 216.449779 
L 156.472066 217.564215 
L 160.407273 220.59182 
L 162.374876 222.48429 
L 164.342479 214.206504 
L 166.310083 217.424259 
L 168.277686 220.117976 
L 170.245289 221.392172 
L 172.212893 220.520453 
L 174.180496 219.071256 
L 176.148099 220.153263 
L 178.115702 218.793546 
L 180.083306 223.284918 
L 182.050909 224.830535 
L 184.018512 223.968796 
L 185.986116 226.126468 
L 187.953719 226.351786 
L 189.921322 222.928214 
L 191.888926 224.385193 
L 193.856529 224.349847 
L 195.824132 223.390081 
L 197.791736 224.514383 
L 199.759339 222.794491 
L 201.726942 222.677407 
L 203.694545 224.944766 
L 205.662149 219.865917 
L 207.629752 220.745389 
L 209.597355 223.424315 
L 211.564959 223.481584 
L 213.532562 222.435302 
L 215.500165 222.89966 
L 217.467769 220.316624 
L 219.435372 219.743226 
L 221.402975 209.182928 
L 223.370579 212.635775 
L 225.338182 217.53377 
L 227.305785 216.474177 
L 229.273388 217.11856 
L 231.240992 219.080094 
L 233.208595 222.713371 
L 235.176198 223.146597 
L 237.143802 217.383891 
L 239.111405 221.140898 
L 243.046612 225.703857 
L 245.014215 224.659415 
L 246.981818 226.062574 
L 248.949421 224.84313 
L 250.917025 225.965453 
L 252.884628 226.609426 
L 254.852231 226.724617 
L 256.819835 227.153915 
L 258.787438 229.757075 
L 260.755041 228.042103 
L 262.722645 229.443857 
L 264.690248 229.357356 
L 266.657851 226.272209 
L 268.625455 228.381272 
L 270.593058 236.158428 
L 272.560661 238.210854 
L 274.528264 240.766904 
L 276.495868 241.154337 
L 278.463471 237.421925 
L 280.431074 242.935118 
L 282.398678 244.903112 
L 284.366281 246.423391 
L 286.333884 245.850601 
L 288.301488 248.2033 
L 292.236694 251.995064 
L 294.204298 253.407195 
L 296.171901 257.614864 
L 298.139504 258.215403 
L 302.074711 260.558804 
L 304.042314 258.358484 
L 306.009917 249.874818 
L 307.977521 247.860676 
L 309.945124 250.482298 
L 311.912727 253.476885 
L 313.880331 254.100674 
L 315.847934 253.318614 
L 317.815537 252.397069 
L 319.78314 252.849846 
L 321.750744 255.096805 
L 323.718347 256.737911 
L 325.68595 257.494311 
L 327.653554 258.828109 
L 329.621157 261.826727 
L 331.58876 257.796791 
L 333.556364 257.866742 
L 335.523967 258.753698 
L 337.49157 256.853133 
L 339.459174 248.070004 
L 341.426777 249.949544 
L 343.39438 250.696396 
L 345.361983 252.12705 
L 347.329587 254.324158 
L 349.29719 246.872906 
L 351.264793 241.106433 
L 353.232397 245.511295 
L 355.2 245.412873 
L 357.167603 237.053606 
L 359.135207 243.05744 
L 361.10281 241.147107 
L 363.070413 235.452236 
L 365.038017 227.526235 
L 367.00562 235.675697 
L 370.940826 234.695068 
L 372.90843 238.375174 
L 374.876033 240.223223 
L 376.843636 245.086104 
L 378.81124 247.189044 
L 380.778843 250.086308 
L 382.746446 252.378523 
L 384.71405 255.060181 
L 386.681653 256.089221 
L 388.649256 256.850508 
L 390.61686 254.105389 
L 392.584463 255.454144 
L 394.552066 255.610952 
L 396.519669 255.079998 
L 398.487273 255.599307 
L 398.487273 255.599307 
" clip-path="url(#p4c25639a06)" style="fill: none; stroke-dasharray: 5.55,2.4; stroke-dashoffset: 0; stroke: #1f77b4; stroke-width: 1.5"/>
   </g>
   <g id="line2d_16">
    <path d="M 73.832727 236.193794 
L 75.800331 258.767478 
L 77.767934 262.355214 
L 79.735537 235.248207 
L 81.70314 178.420273 
L 83.670744 145.795631 
L 85.638347 205.579744 
L 87.60595 189.850015 
L 89.573554 250.748596 
L 91.541157 226.619003 
L 93.50876 220.419846 
L 95.476364 216.108867 
L 97.443967 203.155193 
L 99.41157 225.775843 
L 101.379174 265.323385 
L 103.346777 198.965628 
L 105.31438 218.325563 
L 107.281983 241.426378 
L 109.249587 251.813101 
L 111.21719 236.323453 
L 113.184793 225.56599 
L 115.152397 246.713424 
L 117.12 219.874228 
L 119.087603 169.034849 
L 121.055207 168.27713 
L 123.02281 215.128304 
L 124.990413 235.402349 
L 126.958017 229.852487 
L 128.92562 185.615232 
L 130.893223 188.395784 
L 132.860826 212.794439 
L 134.82843 233.978346 
L 136.796033 215.19026 
L 138.763636 162.850432 
L 140.73124 166.481638 
L 142.698843 122.811735 
L 144.666446 131.733484 
L 146.63405 213.030274 
L 148.601653 241.077622 
L 150.569256 240.726618 
L 152.53686 212.201854 
L 154.504463 219.235426 
L 156.472066 185.139065 
L 158.439669 208.866691 
L 160.407273 193.407272 
L 162.374876 187.012003 
L 164.342479 53.568 
L 166.310083 169.463049 
L 168.277686 172.033498 
L 172.212893 188.461238 
L 174.180496 178.526199 
L 176.148099 171.808405 
L 178.115702 171.010215 
L 180.083306 219.253413 
L 182.050909 218.926392 
L 184.018512 192.358257 
L 185.986116 200.997954 
L 187.953719 210.613217 
L 189.921322 192.521143 
L 191.888926 230.208488 
L 193.856529 225.904253 
L 195.824132 230.745112 
L 197.791736 246.483335 
L 199.759339 230.270195 
L 201.726942 239.085768 
L 203.694545 268.179883 
L 205.662149 213.136699 
L 207.629752 231.028663 
L 209.597355 231.101612 
L 211.564959 232.308766 
L 213.532562 228.243614 
L 215.500165 246.386902 
L 217.467769 215.172023 
L 219.435372 227.198597 
L 221.402975 120.289002 
L 223.370579 189.954442 
L 225.338182 229.372324 
L 227.305785 210.972965 
L 229.273388 232.849387 
L 231.240992 201.279007 
L 233.208595 241.760644 
L 235.176198 248.071722 
L 237.143802 199.067556 
L 239.111405 244.526956 
L 241.079008 239.419784 
L 243.046612 244.950409 
L 245.014215 229.676361 
L 246.981818 257.562073 
L 248.949421 244.498226 
L 250.917025 255.162754 
L 252.884628 266.566014 
L 254.852231 264.860459 
L 256.819835 234.574679 
L 258.787438 258.004013 
L 260.755041 249.075519 
L 262.722645 259.300105 
L 264.690248 256.756387 
L 266.657851 201.869343 
L 268.625455 130.315227 
L 270.593058 231.636987 
L 272.560661 175.867561 
L 274.528264 199.672383 
L 276.495868 217.183114 
L 278.463471 185.726904 
L 280.431074 229.414044 
L 282.398678 238.174906 
L 284.366281 206.9273 
L 286.333884 172.877656 
L 288.301488 235.910992 
L 290.269091 260.449624 
L 292.236694 283.336464 
L 294.204298 264.089 
L 296.171901 273.804817 
L 298.139504 261.659352 
L 300.107107 266.859708 
L 302.074711 265.403054 
L 304.042314 209.583838 
L 306.009917 175.178869 
L 307.977521 220.003413 
L 309.945124 232.562963 
L 311.912727 248.254869 
L 313.880331 275.836594 
L 315.847934 260.111361 
L 317.815537 267.7638 
L 319.78314 284.380033 
L 321.750744 285.035823 
L 323.718347 285.428623 
L 325.68595 279.557587 
L 327.653554 267.643609 
L 329.621157 276.73424 
L 331.58876 245.305235 
L 333.556364 275.809413 
L 335.523967 286.890224 
L 337.49157 285.280527 
L 339.459174 241.482039 
L 341.426777 258.746618 
L 343.39438 284.667381 
L 345.361983 274.463256 
L 347.329587 295.488 
L 349.29719 257.048457 
L 351.264793 223.999088 
L 353.232397 265.63689 
L 355.2 276.94072 
L 357.167603 217.312198 
L 359.135207 220.724583 
L 361.10281 208.16136 
L 363.070413 218.512807 
L 365.038017 200.821478 
L 367.00562 236.753877 
L 368.973223 236.147227 
L 370.940826 241.026408 
L 372.90843 266.275168 
L 374.876033 257.602319 
L 376.843636 260.828359 
L 378.81124 254.18309 
L 380.778843 259.469311 
L 382.746446 263.340799 
L 384.71405 259.40763 
L 386.681653 263.965986 
L 388.649256 274.509548 
L 390.61686 244.953881 
L 392.584463 258.184312 
L 394.552066 256.00224 
L 396.519669 263.556598 
L 398.487273 278.528637 
L 398.487273 278.528637 
" clip-path="url(#p4c25639a06)" style="fill: none; stroke: #ff7f0e; stroke-width: 1.5; stroke-linecap: square"/>
   </g>
   <g id="patch_3">
    <path d="M 57.6 307.584 
L 57.6 41.472 
" style="fill: none; stroke: #000000; stroke-width: 0.8; stroke-linejoin: miter; stroke-linecap: square"/>
   </g>
   <g id="patch_4">
    <path d="M 414.72 307.584 
L 414.72 41.472 
" style="fill: none; stroke: #000000; stroke-width: 0.8; stroke-linejoin: miter; stroke-linecap: square"/>
   </g>
   <g id="patch_5">
    <path d="M 57.6 307.584 
L 414.72 307.584 
" style="fill: none; stroke: #000000; stroke-width: 0.8; stroke-linejoin: miter; stroke-linecap: square"/>
   </g>
   <g id="patch_6">
    <path d="M 57.6 41.472 
L 414.72 41.472 
" style="fill: none; stroke: #000000; stroke-width: 0.8; stroke-linejoin: miter; stroke-linecap: square"/>
   </g>
   <g id="text_15">
    <!-- Comparatie intre y si y_rec (PCA(1)) -->
    <g transform="translate(128.424375 35.472) scale(0.12 -0.12)">
     <defs>
      <path id="DejaVuSans-43" d="M 4122 4306 
L 4122 3641 
Q 3803 3938 3442 4084 
Q 3081 4231 2675 4231 
Q 1875 4231 1450 3742 
Q 1025 3253 1025 2328 
Q 1025 1406 1450 917 
Q 1875 428 2675 428 
Q 3081 428 3442 575 
Q 3803 722 4122 1019 
L 4122 359 
Q 3791 134 3420 21 
Q 3050 -91 2638 -91 
Q 1578 -91 968 557 
Q 359 1206 359 2328 
Q 359 3453 968 4101 
Q 1578 4750 2638 4750 
Q 3056 4750 3426 4639 
Q 3797 4528 4122 4306 
z
" transform="scale(0.015625)"/>
      <path id="DejaVuSans-6f" d="M 1959 3097 
Q 1497 3097 1228 2736 
Q 959 2375 959 1747 
Q 959 1119 1226 758 
Q 1494 397 1959 397 
Q 2419 397 2687 759 
Q 2956 1122 2956 1747 
Q 2956 2369 2687 2733 
Q 2419 3097 1959 3097 
z
M 1959 3584 
Q 2709 3584 3137 3096 
Q 3566 2609 3566 1747 
Q 3566 888 3137 398 
Q 2709 -91 1959 -91 
Q 1206 -91 779 398 
Q 353 888 353 1747 
Q 353 2609 779 3096 
Q 1206 3584 1959 3584 
z
" transform="scale(0.015625)"/>
      <path id="DejaVuSans-6d" d="M 3328 2828 
Q 3544 3216 3844 3400 
Q 4144 3584 4550 3584 
Q 5097 3584 5394 3201 
Q 5691 2819 5691 2113 
L 5691 0 
L 5113 0 
L 5113 2094 
Q 5113 2597 4934 2840 
Q 4756 3084 4391 3084 
Q 3944 3084 3684 2787 
Q 3425 2491 3425 1978 
L 3425 0 
L 2847 0 
L 2847 2094 
Q 2847 2600 2669 2842 
Q 2491 3084 2119 3084 
Q 1678 3084 1418 2786 
Q 1159 2488 1159 1978 
L 1159 0 
L 581 0 
L 581 3500 
L 1159 3500 
L 1159 2956 
Q 1356 3278 1631 3431 
Q 1906 3584 2284 3584 
Q 2666 3584 2933 3390 
Q 3200 3197 3328 2828 
z
" transform="scale(0.015625)"/>
      <path id="DejaVuSans-70" d="M 1159 525 
L 1159 -1331 
L 581 -1331 
L 581 3500 
L 1159 3500 
L 1159 2969 
Q 1341 3281 1617 3432 
Q 1894 3584 2278 3584 
Q 2916 3584 3314 3078 
Q 3713 2572 3713 1747 
Q 3713 922 3314 415 
Q 2916 -91 2278 -91 
Q 1894 -91 1617 61 
Q 1341 213 1159 525 
z
M 3116 1747 
Q 3116 2381 2855 2742 
Q 2594 3103 2138 3103 
Q 1681 3103 1420 2742 
Q 1159 2381 1159 1747 
Q 1159 1113 1420 752 
Q 1681 391 2138 391 
Q 2594 391 2855 752 
Q 3116 1113 3116 1747 
z
" transform="scale(0.015625)"/>
      <path id="DejaVuSans-61" d="M 2194 1759 
Q 1497 1759 1228 1600 
Q 959 1441 959 1056 
Q 959 750 1161 570 
Q 1363 391 1709 391 
Q 2188 391 2477 730 
Q 2766 1069 2766 1631 
L 2766 1759 
L 2194 1759 
z
M 3341 1997 
L 3341 0 
L 2766 0 
L 2766 531 
Q 2569 213 2275 61 
Q 1981 -91 1556 -91 
Q 1019 -91 701 211 
Q 384 513 384 1019 
Q 384 1609 779 1909 
Q 1175 2209 1959 2209 
L 2766 2209 
L 2766 2266 
Q 2766 2663 2505 2880 
Q 2244 3097 1772 3097 
Q 1472 3097 1187 3025 
Q 903 2953 641 2809 
L 641 3341 
Q 956 3463 1253 3523 
Q 1550 3584 1831 3584 
Q 2591 3584 2966 3190 
Q 3341 2797 3341 1997 
z
" transform="scale(0.015625)"/>
      <path id="DejaVuSans-72" d="M 2631 2963 
Q 2534 3019 2420 3045 
Q 2306 3072 2169 3072 
Q 1681 3072 1420 2755 
Q 1159 2438 1159 1844 
L 1159 0 
L 581 0 
L 581 3500 
L 1159 3500 
L 1159 2956 
Q 1341 3275 1631 3429 
Q 1922 3584 2338 3584 
Q 2397 3584 2469 3576 
Q 2541 3569 2628 3553 
L 2631 2963 
z
" transform="scale(0.015625)"/>
      <path id="DejaVuSans-74" d="M 1172 4494 
L 1172 3500 
L 2356 3500 
L 2356 3053 
L 1172 3053 
L 1172 1153 
Q 1172 725 1289 603 
Q 1406 481 1766 481 
L 2356 481 
L 2356 0 
L 1766 0 
Q 1100 0 847 248 
Q 594 497 594 1153 
L 594 3053 
L 172 3053 
L 172 3500 
L 594 3500 
L 594 4494 
L 1172 4494 
z
" transform="scale(0.015625)"/>
      <path id="DejaVuSans-69" d="M 603 3500 
L 1178 3500 
L 1178 0 
L 603 0 
L 603 3500 
z
M 603 4863 
L 1178 4863 
L 1178 4134 
L 603 4134 
L 603 4863 
z
" transform="scale(0.015625)"/>
      <path id="DejaVuSans-65" d="M 3597 1894 
L 3597 1613 
L 953 1613 
Q 991 1019 1311 708 
Q 1631 397 2203 397 
Q 2534 397 2845 478 
Q 3156 559 3463 722 
L 3463 178 
Q 3153 47 2828 -22 
Q 2503 -91 2169 -91 
Q 1331 -91 842 396 
Q 353 884 353 1716 
Q 353 2575 817 3079 
Q 1281 3584 2069 3584 
Q 2775 3584 3186 3129 
Q 3597 2675 3597 1894 
z
M 3022 2063 
Q 3016 2534 2758 2815 
Q 2500 3097 2075 3097 
Q 1594 3097 1305 2825 
Q 1016 2553 972 2059 
L 3022 2063 
z
" transform="scale(0.015625)"/>
      <path id="DejaVuSans-20" transform="scale(0.015625)"/>
      <path id="DejaVuSans-6e" d="M 3513 2113 
L 3513 0 
L 2938 0 
L 2938 2094 
Q 2938 2591 2744 2837 
Q 2550 3084 2163 3084 
Q 1697 3084 1428 2787 
Q 1159 2491 1159 1978 
L 1159 0 
L 581 0 
L 581 3500 
L 1159 3500 
L 1159 2956 
Q 1366 3272 1645 3428 
Q 1925 3584 2291 3584 
Q 2894 3584 3203 3211 
Q 3513 2838 3513 2113 
z
" transform="scale(0.015625)"/>
      <path id="DejaVuSans-79" d="M 2059 -325 
Q 1816 -950 1584 -1140 
Q 1353 -1331 966 -1331 
L 506 -1331 
L 506 -850 
L 844 -850 
Q 1081 -850 1212 -737 
Q 1344 -625 1503 -206 
L 1606 56 
L 191 3500 
L 800 3500 
L 1894 763 
L 2988 3500 
L 3597 3500 
L 2059 -325 
z
" transform="scale(0.015625)"/>
      <path id="DejaVuSans-73" d="M 2834 3397 
L 2834 2853 
Q 2591 2978 2328 3040 
Q 2066 3103 1784 3103 
Q 1356 3103 1142 2972 
Q 928 2841 928 2578 
Q 928 2378 1081 2264 
Q 1234 2150 1697 2047 
L 1894 2003 
Q 2506 1872 2764 1633 
Q 3022 1394 3022 966 
Q 3022 478 2636 193 
Q 2250 -91 1575 -91 
Q 1294 -91 989 -36 
Q 684 19 347 128 
L 347 722 
Q 666 556 975 473 
Q 1284 391 1588 391 
Q 1994 391 2212 530 
Q 2431 669 2431 922 
Q 2431 1156 2273 1281 
Q 2116 1406 1581 1522 
L 1381 1569 
Q 847 1681 609 1914 
Q 372 2147 372 2553 
Q 372 3047 722 3315 
Q 1072 3584 1716 3584 
Q 2034 3584 2315 3537 
Q 2597 3491 2834 3397 
z
" transform="scale(0.015625)"/>
      <path id="DejaVuSans-5f" d="M 3263 -1063 
L 3263 -1509 
L -63 -1509 
L -63 -1063 
L 3263 -1063 
z
" transform="scale(0.015625)"/>
      <path id="DejaVuSans-63" d="M 3122 3366 
L 3122 2828 
Q 2878 2963 2633 3030 
Q 2388 3097 2138 3097 
Q 1578 3097 1268 2742 
Q 959 2388 959 1747 
Q 959 1106 1268 751 
Q 1578 397 2138 397 
Q 2388 397 2633 464 
Q 2878 531 3122 666 
L 3122 134 
Q 2881 22 2623 -34 
Q 2366 -91 2075 -91 
Q 1284 -91 818 406 
Q 353 903 353 1747 
Q 353 2603 823 3093 
Q 1294 3584 2113 3584 
Q 2378 3584 2631 3529 
Q 2884 3475 3122 3366 
z
" transform="scale(0.015625)"/>
      <path id="DejaVuSans-28" d="M 1984 4856 
Q 1566 4138 1362 3434 
Q 1159 2731 1159 2009 
Q 1159 1288 1364 580 
Q 1569 -128 1984 -844 
L 1484 -844 
Q 1016 -109 783 600 
Q 550 1309 550 2009 
Q 550 2706 781 3412 
Q 1013 4119 1484 4856 
L 1984 4856 
z
" transform="scale(0.015625)"/>
      <path id="DejaVuSans-50" d="M 1259 4147 
L 1259 2394 
L 2053 2394 
Q 2494 2394 2734 2622 
Q 2975 2850 2975 3272 
Q 2975 3691 2734 3919 
Q 2494 4147 2053 4147 
L 1259 4147 
z
M 628 4666 
L 2053 4666 
Q 2838 4666 3239 4311 
Q 3641 3956 3641 3272 
Q 3641 2581 3239 2228 
Q 2838 1875 2053 1875 
L 1259 1875 
L 1259 0 
L 628 0 
L 628 4666 
z
" transform="scale(0.015625)"/>
      <path id="DejaVuSans-41" d="M 2188 4044 
L 1331 1722 
L 3047 1722 
L 2188 4044 
z
M 1831 4666 
L 2547 4666 
L 4325 0 
L 3669 0 
L 3244 1197 
L 1141 1197 
L 716 0 
L 50 0 
L 1831 4666 
z
" transform="scale(0.015625)"/>
      <path id="DejaVuSans-29" d="M 513 4856 
L 1013 4856 
Q 1481 4119 1714 3412 
Q 1947 2706 1947 2009 
Q 1947 1309 1714 600 
Q 1481 -109 1013 -844 
L 513 -844 
Q 928 -128 1133 580 
Q 1338 1288 1338 2009 
Q 1338 2731 1133 3434 
Q 928 4138 513 4856 
z
" transform="scale(0.015625)"/>
     </defs>
     <use xlink:href="#DejaVuSans-43"/>
     <use xlink:href="#DejaVuSans-6f" transform="translate(69.824219 0)"/>
     <use xlink:href="#DejaVuSans-6d" transform="translate(131.005859 0)"/>
     <use xlink:href="#DejaVuSans-70" transform="translate(228.417969 0)"/>
     <use xlink:href="#DejaVuSans-61" transform="translate(291.894531 0)"/>
     <use xlink:href="#DejaVuSans-72" transform="translate(353.173828 0)"/>
     <use xlink:href="#DejaVuSans-61" transform="translate(394.287109 0)"/>
     <use xlink:href="#DejaVuSans-74" transform="translate(455.566406 0)"/>
     <use xlink:href="#DejaVuSans-69" transform="translate(494.775391 0)"/>
     <use xlink:href="#DejaVuSans-65" transform="translate(522.558594 0)"/>
     <use xlink:href="#DejaVuSans-20" transform="translate(584.082031 0)"/>
     <use xlink:href="#DejaVuSans-69" transform="translate(615.869141 0)"/>
     <use xlink:href="#DejaVuSans-6e" transform="translate(643.652344 0)"/>
     <use xlink:href="#DejaVuSans-74" transform="translate(707.03125 0)"/>
     <use xlink:href="#DejaVuSans-72" transform="translate(746.240234 0)"/>
     <use xlink:href="#DejaVuSans-65" transform="translate(785.103516 0)"/>
     <use xlink:href="#DejaVuSans-20" transform="translate(846.626953 0)"/>
     <use xlink:href="#DejaVuSans-79" transform="translate(878.414062 0)"/>
     <use xlink:href="#DejaVuSans-20" transform="translate(937.59375 0)"/>
     <use xlink:href="#DejaVuSans-73" transform="translate(969.380859 0)"/>
     <use xlink:href="#DejaVuSans-69" transform="translate(1021.480469 0)"/>
     <use xlink:href="#DejaVuSans-20" transform="translate(1049.263672 0)"/>
     <use xlink:href="#DejaVuSans-79" transform="translate(1081.050781 0)"/>
     <use xlink:href="#DejaVuSans-5f" transform="translate(1140.230469 0)"/>
     <use xlink:href="#DejaVuSans-72" transform="translate(1190.230469 0)"/>
     <use xlink:href="#DejaVuSans-65" transform="translate(1229.09375 0)"/>
     <use xlink:href="#DejaVuSans-63" transform="translate(1290.617188 0)"/>
     <use xlink:href="#DejaVuSans-20" transform="translate(1345.597656 0)"/>
     <use xlink:href="#DejaVuSans-28" transform="translate(1377.384766 0)"/>
     <use xlink:href="#DejaVuSans-50" transform="translate(1416.398438 0)"/>
     <use xlink:href="#DejaVuSans-43" transform="translate(1476.701172 0)"/>
     <use xlink:href="#DejaVuSans-41" transform="translate(1546.525391 0)"/>
     <use xlink:href="#DejaVuSans-28" transform="translate(1614.933594 0)"/>
     <use xlink:href="#DejaVuSans-31" transform="translate(1653.947266 0)"/>
     <use xlink:href="#DejaVuSans-29" transform="translate(1717.570312 0)"/>
     <use xlink:href="#DejaVuSans-29" transform="translate(1756.583984 0)"/>
    </g>
   </g>
  </g>
 </g>
 <defs>
  <clipPath id="p4c25639a06">
   <rect x="57.6" y="41.472" width="357.12" height="266.112"/>
  </clipPath>
 </defs>
</svg>
