<?xml version="1.0" encoding="utf-8" standalone="no"?>
<!DOCTYPE svg PUBLIC "-//W3C//DTD SVG 1.1//EN"
  "http://www.w3.org/Graphics/SVG/1.1/DTD/svg11.dtd">
<svg xmlns:xlink="http://www.w3.org/1999/xlink" width="1382.4pt" height="777.6pt" viewBox="0 0 1382.4 777.6" xmlns="http://www.w3.org/2000/svg" version="1.1">
 <metadata>
  <rdf:RDF xmlns:dc="http://purl.org/dc/elements/1.1/" xmlns:cc="http://creativecommons.org/ns#" xmlns:rdf="http://www.w3.org/1999/02/22-rdf-syntax-ns#">
   <cc:Work>
    <dc:type rdf:resource="http://purl.org/dc/dcmitype/StillImage"/>
    <dc:date>2025-01-28T20:11:25.973632</dc:date>
    <dc:format>image/svg+xml</dc:format>
    <dc:creator>
     <cc:Agent>
      <dc:title>Matplotlib v3.10.0, https://matplotlib.org/</dc:title>
     </cc:Agent>
    </dc:creator>
   </cc:Work>
  </rdf:RDF>
 </metadata>
 <defs>
  <style type="text/css">*{stroke-linejoin: round; stroke-linecap: butt}</style>
 </defs>
 <g id="figure_1">
  <g id="patch_1">
   <path d="M 0 777.6 
L 1382.4 777.6 
L 1382.4 0 
L 0 0 
z
" style="fill: #ffffff"/>
  </g>
  <g id="axes_1">
   <g id="patch_2">
    <path d="M 172.8 692.064 
L 1244.16 692.064 
L 1244.16 93.312 
L 172.8 93.312 
z
" style="fill: #ffffff"/>
   </g>
   <g id="matplotlib.axis_1">
    <g id="xtick_1">
     <g id="line2d_1">
      <defs>
       <path id="me7a0c218a5" d="M 0 0 
L 0 3.5 
" style="stroke: #000000; stroke-width: 0.8"/>
      </defs>
      <g>
       <use xlink:href="#me7a0c218a5" x="221.498182" y="692.064" style="stroke: #000000; stroke-width: 0.8"/>
      </g>
     </g>
     <g id="text_1">
      <!-- 0 -->
      <g transform="translate(218.316932 706.662438) scale(0.1 -0.1)">
       <defs>
        <path id="DejaVuSans-30" d="M 2034 4250 
Q 1547 4250 1301 3770 
Q 1056 3291 1056 2328 
Q 1056 1369 1301 889 
Q 1547 409 2034 409 
Q 2525 409 2770 889 
Q 3016 1369 3016 2328 
Q 3016 3291 2770 3770 
Q 2525 4250 2034 4250 
z
M 2034 4750 
Q 2819 4750 3233 4129 
Q 3647 3509 3647 2328 
Q 3647 1150 3233 529 
Q 2819 -91 2034 -91 
Q 1250 -91 836 529 
Q 422 1150 422 2328 
Q 422 3509 836 4129 
Q 1250 4750 2034 4750 
z
" transform="scale(0.015625)"/>
       </defs>
       <use xlink:href="#DejaVuSans-30"/>
      </g>
     </g>
    </g>
    <g id="xtick_2">
     <g id="line2d_2">
      <g>
       <use xlink:href="#me7a0c218a5" x="369.06843" y="692.064" style="stroke: #000000; stroke-width: 0.8"/>
      </g>
     </g>
     <g id="text_2">
      <!-- 25 -->
      <g transform="translate(362.70593 706.662438) scale(0.1 -0.1)">
       <defs>
        <path id="DejaVuSans-32" d="M 1228 531 
L 3431 531 
L 3431 0 
L 469 0 
L 469 531 
Q 828 903 1448 1529 
Q 2069 2156 2228 2338 
Q 2531 2678 2651 2914 
Q 2772 3150 2772 3378 
Q 2772 3750 2511 3984 
Q 2250 4219 1831 4219 
Q 1534 4219 1204 4116 
Q 875 4013 500 3803 
L 500 4441 
Q 881 4594 1212 4672 
Q 1544 4750 1819 4750 
Q 2544 4750 2975 4387 
Q 3406 4025 3406 3419 
Q 3406 3131 3298 2873 
Q 3191 2616 2906 2266 
Q 2828 2175 2409 1742 
Q 1991 1309 1228 531 
z
" transform="scale(0.015625)"/>
        <path id="DejaVuSans-35" d="M 691 4666 
L 3169 4666 
L 3169 4134 
L 1269 4134 
L 1269 2991 
Q 1406 3038 1543 3061 
Q 1681 3084 1819 3084 
Q 2600 3084 3056 2656 
Q 3513 2228 3513 1497 
Q 3513 744 3044 326 
Q 2575 -91 1722 -91 
Q 1428 -91 1123 -41 
Q 819 9 494 109 
L 494 744 
Q 775 591 1075 516 
Q 1375 441 1709 441 
Q 2250 441 2565 725 
Q 2881 1009 2881 1497 
Q 2881 1984 2565 2268 
Q 2250 2553 1709 2553 
Q 1456 2553 1204 2497 
Q 953 2441 691 2322 
L 691 4666 
z
" transform="scale(0.015625)"/>
       </defs>
       <use xlink:href="#DejaVuSans-32"/>
       <use xlink:href="#DejaVuSans-35" transform="translate(63.623047 0)"/>
      </g>
     </g>
    </g>
    <g id="xtick_3">
     <g id="line2d_3">
      <g>
       <use xlink:href="#me7a0c218a5" x="516.638678" y="692.064" style="stroke: #000000; stroke-width: 0.8"/>
      </g>
     </g>
     <g id="text_3">
      <!-- 50 -->
      <g transform="translate(510.276178 706.662438) scale(0.1 -0.1)">
       <use xlink:href="#DejaVuSans-35"/>
       <use xlink:href="#DejaVuSans-30" transform="translate(63.623047 0)"/>
      </g>
     </g>
    </g>
    <g id="xtick_4">
     <g id="line2d_4">
      <g>
       <use xlink:href="#me7a0c218a5" x="664.208926" y="692.064" style="stroke: #000000; stroke-width: 0.8"/>
      </g>
     </g>
     <g id="text_4">
      <!-- 75 -->
      <g transform="translate(657.846426 706.662438) scale(0.1 -0.1)">
       <defs>
        <path id="DejaVuSans-37" d="M 525 4666 
L 3525 4666 
L 3525 4397 
L 1831 0 
L 1172 0 
L 2766 4134 
L 525 4134 
L 525 4666 
z
" transform="scale(0.015625)"/>
       </defs>
       <use xlink:href="#DejaVuSans-37"/>
       <use xlink:href="#DejaVuSans-35" transform="translate(63.623047 0)"/>
      </g>
     </g>
    </g>
    <g id="xtick_5">
     <g id="line2d_5">
      <g>
       <use xlink:href="#me7a0c218a5" x="811.779174" y="692.064" style="stroke: #000000; stroke-width: 0.8"/>
      </g>
     </g>
     <g id="text_5">
      <!-- 100 -->
      <g transform="translate(802.235424 706.662438) scale(0.1 -0.1)">
       <defs>
        <path id="DejaVuSans-31" d="M 794 531 
L 1825 531 
L 1825 4091 
L 703 3866 
L 703 4441 
L 1819 4666 
L 2450 4666 
L 2450 531 
L 3481 531 
L 3481 0 
L 794 0 
L 794 531 
z
" transform="scale(0.015625)"/>
       </defs>
       <use xlink:href="#DejaVuSans-31"/>
       <use xlink:href="#DejaVuSans-30" transform="translate(63.623047 0)"/>
       <use xlink:href="#DejaVuSans-30" transform="translate(127.246094 0)"/>
      </g>
     </g>
    </g>
    <g id="xtick_6">
     <g id="line2d_6">
      <g>
       <use xlink:href="#me7a0c218a5" x="959.349421" y="692.064" style="stroke: #000000; stroke-width: 0.8"/>
      </g>
     </g>
     <g id="text_6">
      <!-- 125 -->
      <g transform="translate(949.805671 706.662438) scale(0.1 -0.1)">
       <use xlink:href="#DejaVuSans-31"/>
       <use xlink:href="#DejaVuSans-32" transform="translate(63.623047 0)"/>
       <use xlink:href="#DejaVuSans-35" transform="translate(127.246094 0)"/>
      </g>
     </g>
    </g>
    <g id="xtick_7">
     <g id="line2d_7">
      <g>
       <use xlink:href="#me7a0c218a5" x="1106.919669" y="692.064" style="stroke: #000000; stroke-width: 0.8"/>
      </g>
     </g>
     <g id="text_7">
      <!-- 150 -->
      <g transform="translate(1097.375919 706.662438) scale(0.1 -0.1)">
       <use xlink:href="#DejaVuSans-31"/>
       <use xlink:href="#DejaVuSans-35" transform="translate(63.623047 0)"/>
       <use xlink:href="#DejaVuSans-30" transform="translate(127.246094 0)"/>
      </g>
     </g>
    </g>
   </g>
   <g id="matplotlib.axis_2">
    <g id="ytick_1">
     <g id="line2d_8">
      <defs>
       <path id="m082fe266d0" d="M 0 0 
L -3.5 0 
" style="stroke: #000000; stroke-width: 0.8"/>
      </defs>
      <g>
       <use xlink:href="#m082fe266d0" x="172.8" y="686.093758" style="stroke: #000000; stroke-width: 0.8"/>
      </g>
     </g>
     <g id="text_8">
      <!-- −2 -->
      <g transform="translate(151.057812 689.892977) scale(0.1 -0.1)">
       <defs>
        <path id="DejaVuSans-2212" d="M 678 2272 
L 4684 2272 
L 4684 1741 
L 678 1741 
L 678 2272 
z
" transform="scale(0.015625)"/>
       </defs>
       <use xlink:href="#DejaVuSans-2212"/>
       <use xlink:href="#DejaVuSans-32" transform="translate(83.789062 0)"/>
      </g>
     </g>
    </g>
    <g id="ytick_2">
     <g id="line2d_9">
      <g>
       <use xlink:href="#m082fe266d0" x="172.8" y="599.713297" style="stroke: #000000; stroke-width: 0.8"/>
      </g>
     </g>
     <g id="text_9">
      <!-- −1 -->
      <g transform="translate(151.057812 603.512516) scale(0.1 -0.1)">
       <use xlink:href="#DejaVuSans-2212"/>
       <use xlink:href="#DejaVuSans-31" transform="translate(83.789062 0)"/>
      </g>
     </g>
    </g>
    <g id="ytick_3">
     <g id="line2d_10">
      <g>
       <use xlink:href="#m082fe266d0" x="172.8" y="513.332836" style="stroke: #000000; stroke-width: 0.8"/>
      </g>
     </g>
     <g id="text_10">
      <!-- 0 -->
      <g transform="translate(159.4375 517.132054) scale(0.1 -0.1)">
       <use xlink:href="#DejaVuSans-30"/>
      </g>
     </g>
    </g>
    <g id="ytick_4">
     <g id="line2d_11">
      <g>
       <use xlink:href="#m082fe266d0" x="172.8" y="426.952375" style="stroke: #000000; stroke-width: 0.8"/>
      </g>
     </g>
     <g id="text_11">
      <!-- 1 -->
      <g transform="translate(159.4375 430.751593) scale(0.1 -0.1)">
       <use xlink:href="#DejaVuSans-31"/>
      </g>
     </g>
    </g>
    <g id="ytick_5">
     <g id="line2d_12">
      <g>
       <use xlink:href="#m082fe266d0" x="172.8" y="340.571913" style="stroke: #000000; stroke-width: 0.8"/>
      </g>
     </g>
     <g id="text_12">
      <!-- 2 -->
      <g transform="translate(159.4375 344.371132) scale(0.1 -0.1)">
       <use xlink:href="#DejaVuSans-32"/>
      </g>
     </g>
    </g>
    <g id="ytick_6">
     <g id="line2d_13">
      <g>
       <use xlink:href="#m082fe266d0" x="172.8" y="254.191452" style="stroke: #000000; stroke-width: 0.8"/>
      </g>
     </g>
     <g id="text_13">
      <!-- 3 -->
      <g transform="translate(159.4375 257.990671) scale(0.1 -0.1)">
       <defs>
        <path id="DejaVuSans-33" d="M 2597 2516 
Q 3050 2419 3304 2112 
Q 3559 1806 3559 1356 
Q 3559 666 3084 287 
Q 2609 -91 1734 -91 
Q 1441 -91 1130 -33 
Q 819 25 488 141 
L 488 750 
Q 750 597 1062 519 
Q 1375 441 1716 441 
Q 2309 441 2620 675 
Q 2931 909 2931 1356 
Q 2931 1769 2642 2001 
Q 2353 2234 1838 2234 
L 1294 2234 
L 1294 2753 
L 1863 2753 
Q 2328 2753 2575 2939 
Q 2822 3125 2822 3475 
Q 2822 3834 2567 4026 
Q 2313 4219 1838 4219 
Q 1578 4219 1281 4162 
Q 984 4106 628 3988 
L 628 4550 
Q 988 4650 1302 4700 
Q 1616 4750 1894 4750 
Q 2613 4750 3031 4423 
Q 3450 4097 3450 3541 
Q 3450 3153 3228 2886 
Q 3006 2619 2597 2516 
z
" transform="scale(0.015625)"/>
       </defs>
       <use xlink:href="#DejaVuSans-33"/>
      </g>
     </g>
    </g>
    <g id="ytick_7">
     <g id="line2d_14">
      <g>
       <use xlink:href="#m082fe266d0" x="172.8" y="167.810991" style="stroke: #000000; stroke-width: 0.8"/>
      </g>
     </g>
     <g id="text_14">
      <!-- 4 -->
      <g transform="translate(159.4375 171.61021) scale(0.1 -0.1)">
       <defs>
        <path id="DejaVuSans-34" d="M 2419 4116 
L 825 1625 
L 2419 1625 
L 2419 4116 
z
M 2253 4666 
L 3047 4666 
L 3047 1625 
L 3713 1625 
L 3713 1100 
L 3047 1100 
L 3047 0 
L 2419 0 
L 2419 1100 
L 313 1100 
L 313 1709 
L 2253 4666 
z
" transform="scale(0.015625)"/>
       </defs>
       <use xlink:href="#DejaVuSans-34"/>
      </g>
     </g>
    </g>
   </g>
   <g id="line2d_15">
    <path d="M 221.498182 532.983276 
L 227.400992 558.830124 
L 233.303802 561.831356 
L 239.206612 531.763747 
L 245.109421 404.977671 
L 251.012231 328.169259 
L 256.915041 471.789727 
L 262.817851 430.932799 
L 268.720661 557.335411 
L 274.623471 519.575965 
L 280.526281 506.573017 
L 286.429091 496.955895 
L 292.331901 464.690615 
L 304.137521 571.135067 
L 310.040331 452.844985 
L 315.94314 502.009202 
L 321.84595 546.576428 
L 327.74876 560.049252 
L 333.65157 538.374139 
L 339.55438 517.996284 
L 345.45719 553.949035 
L 351.36 505.392101 
L 357.26281 365.066049 
L 363.16562 362.625682 
L 369.06843 493.981483 
L 374.97124 535.750669 
L 380.87405 525.596586 
L 386.77686 413.149441 
L 392.679669 421.377958 
L 398.582479 488.044076 
L 404.485289 532.597258 
L 410.388099 493.714969 
L 416.290909 346.66023 
L 422.193719 357.929891 
L 428.096529 253.929472 
L 433.999339 269.90681 
L 439.902149 488.395319 
L 445.804959 542.69259 
L 451.707769 542.393619 
L 457.610579 486.478782 
L 463.513388 502.797112 
L 469.416198 413.629506 
L 475.319008 478.210631 
L 481.221818 437.17548 
L 487.124628 419.235563 
L 493.027438 240.705643 
L 498.930248 368.329923 
L 504.833058 376.757795 
L 510.735868 399.476076 
L 516.638678 422.928006 
L 522.541488 394.913615 
L 528.444298 375.357158 
L 534.347107 373.446015 
L 540.249917 502.456022 
L 546.152727 501.476257 
L 552.055537 433.885068 
L 557.958347 456.621539 
L 563.861157 480.971053 
L 569.763967 433.859096 
L 575.666777 524.94454 
L 581.569587 516.474833 
L 587.472397 525.871035 
L 593.375207 550.51753 
L 599.278017 524.195276 
L 605.180826 539.780901 
L 611.083636 568.572773 
L 616.986446 488.157118 
L 622.889256 526.265353 
L 628.792066 526.566883 
L 634.694876 528.484122 
L 640.597686 520.552017 
L 646.500496 549.873307 
L 652.403306 492.6414 
L 658.306116 518.912287 
L 664.208926 249.10485 
L 670.111736 426.604576 
L 676.014545 523.351746 
L 681.917355 482.798211 
L 687.820165 529.516717 
L 693.722975 458.740103 
L 699.625785 543.624162 
L 705.528595 551.823911 
L 711.431405 452.241245 
L 717.334215 547.168114 
L 723.237025 540.43481 
L 729.139835 549.148275 
L 735.042645 523.858932 
L 740.945455 563.080997 
L 746.848264 547.865285 
L 752.751074 560.787644 
L 758.653884 569.543839 
L 764.556694 568.84584 
L 770.459504 533.522579 
L 776.362314 567.15513 
L 782.265124 555.594179 
L 788.167934 568.048665 
L 794.070744 565.646875 
L 799.973554 458.771685 
L 805.876364 283.785589 
L 811.779174 530.2678 
L 817.681983 378.804945 
L 823.584793 442.164929 
L 829.487603 490.950345 
L 835.390413 404.937699 
L 841.293223 524.702568 
L 847.196033 546.790844 
L 853.098843 458.520758 
L 859.001653 366.520342 
L 864.904463 539.957488 
L 870.807273 596.547707 
L 876.710083 630.772364 
L 882.612893 603.054557 
L 888.515702 615.675988 
L 894.418512 591.79804 
L 900.321322 599.38059 
L 906.224132 594.076381 
L 912.126942 453.347041 
L 918.029752 372.408967 
L 923.932562 493.979392 
L 929.835372 529.094068 
L 935.738182 567.632781 
L 941.640992 622.210632 
L 947.543802 594.731326 
L 953.446612 609.704505 
L 959.349421 632.557643 
L 965.252231 632.780278 
L 971.155041 632.3335 
L 977.057851 624.487179 
L 982.960661 602.42685 
L 988.863471 610.913386 
L 994.766281 551.170709 
L 1000.669091 618.406703 
L 1006.571901 631.181767 
L 1012.474711 631.906475 
L 1018.377521 553.599301 
L 1024.280331 592.890392 
L 1030.18314 630.538152 
L 1036.08595 620.613723 
L 1041.98876 641.059672 
L 1047.89157 587.680625 
L 1053.79438 509.570453 
L 1059.69719 601.491151 
L 1065.6 614.920933 
L 1071.50281 492.408341 
L 1077.40562 500.72891 
L 1083.30843 463.444532 
L 1089.21124 498.275159 
L 1095.11405 455.297622 
L 1101.01686 540.579006 
L 1106.919669 536.866781 
L 1112.822479 548.363709 
L 1118.725289 589.842817 
L 1124.628099 582.554385 
L 1130.530909 594.265748 
L 1136.433719 583.215796 
L 1142.336529 594.841829 
L 1148.239339 602.198887 
L 1154.142149 591.85676 
L 1160.044959 599.8321 
L 1165.947769 618.050015 
L 1171.850579 556.89175 
L 1177.753388 588.983608 
L 1183.656198 582.710277 
L 1189.559008 600.555501 
L 1195.461818 624.404648 
L 1195.461818 624.404648 
" clip-path="url(#pcd73b1b2ca)" style="fill: none; stroke-dasharray: 5.55,2.4; stroke-dashoffset: 0; stroke: #1f77b4; stroke-width: 1.5"/>
   </g>
   <g id="line2d_16">
    <path d="M 221.498182 531.436037 
L 227.400992 582.226826 
L 233.303802 590.299232 
L 239.206612 529.308465 
L 245.109421 401.445614 
L 251.012231 328.04017 
L 256.915041 462.554423 
L 262.817851 427.162533 
L 268.720661 564.184342 
L 274.623471 509.892756 
L 280.526281 495.944654 
L 286.429091 486.24495 
L 292.331901 457.099183 
L 298.234711 507.995648 
L 304.137521 596.977616 
L 310.040331 447.672663 
L 315.94314 491.232518 
L 321.84595 543.20935 
L 327.74876 566.579476 
L 333.65157 531.72777 
L 339.55438 507.523479 
L 345.45719 555.105203 
L 351.36 494.717014 
L 357.26281 380.32841 
L 363.16562 378.623542 
L 369.06843 484.038683 
L 374.97124 529.655285 
L 380.87405 517.168096 
L 386.77686 417.634272 
L 392.679669 423.890513 
L 398.582479 478.787487 
L 404.485289 526.451279 
L 410.388099 484.178085 
L 416.290909 366.413472 
L 422.193719 374.583685 
L 428.096529 276.326403 
L 433.999339 296.400338 
L 439.902149 479.318116 
L 445.804959 542.42465 
L 451.707769 541.634891 
L 457.610579 477.454172 
L 463.513388 493.279708 
L 469.416198 416.562897 
L 475.319008 469.950054 
L 481.221818 435.166363 
L 487.124628 420.777007 
L 493.027438 120.528 
L 498.930248 381.29186 
L 504.833058 387.07537 
L 510.735868 405.26625 
L 516.638678 424.037785 
L 522.541488 401.683947 
L 528.444298 386.568912 
L 534.347107 384.772983 
L 540.249917 493.32018 
L 546.152727 492.584383 
L 552.055537 432.806079 
L 557.958347 452.245396 
L 563.861157 473.879738 
L 569.763967 433.172572 
L 575.666777 517.969097 
L 581.569587 508.28457 
L 587.472397 519.176501 
L 593.375207 554.587503 
L 599.278017 518.107938 
L 605.180826 537.942978 
L 611.083636 603.404737 
L 616.986446 479.557573 
L 622.889256 519.814492 
L 628.792066 519.978627 
L 634.694876 522.694724 
L 640.597686 513.548132 
L 646.500496 554.37053 
L 652.403306 484.137052 
L 658.306116 511.196842 
L 664.208926 270.650255 
L 670.111736 427.397493 
L 676.014545 516.087728 
L 681.917355 474.689171 
L 687.820165 523.911122 
L 693.722975 452.877766 
L 699.625785 543.961449 
L 705.528595 558.161374 
L 711.431405 447.902002 
L 717.334215 550.18565 
L 723.237025 538.694514 
L 729.139835 551.13842 
L 735.042645 516.771811 
L 740.945455 579.514663 
L 746.848264 550.121008 
L 752.751074 574.116196 
L 758.653884 599.773532 
L 764.556694 595.936033 
L 770.459504 527.793027 
L 776.362314 580.509029 
L 782.265124 560.419917 
L 788.167934 583.425236 
L 794.070744 577.701871 
L 799.973554 454.206023 
L 805.876364 293.209262 
L 811.779174 521.18322 
L 817.681983 395.702013 
L 823.584793 449.262861 
L 829.487603 488.662006 
L 835.390413 417.885533 
L 841.293223 516.1816 
L 847.196033 535.893539 
L 853.098843 465.586424 
L 859.001653 388.974727 
L 864.904463 530.799733 
L 870.807273 586.011655 
L 876.710083 637.507044 
L 882.612893 594.200249 
L 888.515702 616.060839 
L 894.418512 588.733542 
L 900.321322 600.434344 
L 906.224132 597.156871 
L 912.126942 471.563636 
L 918.029752 394.152455 
L 923.932562 495.007679 
L 929.835372 523.266667 
L 935.738182 558.573454 
L 941.640992 620.632336 
L 947.543802 585.250563 
L 953.446612 602.46855 
L 959.349421 639.855074 
L 965.252231 641.330602 
L 971.155041 642.214402 
L 977.057851 629.00457 
L 982.960661 602.19812 
L 988.863471 622.652039 
L 994.766281 551.936779 
L 1000.669091 620.571179 
L 1006.571901 645.503004 
L 1012.474711 641.881185 
L 1018.377521 543.334588 
L 1024.280331 582.17989 
L 1030.18314 640.501608 
L 1036.08595 617.542326 
L 1041.98876 664.848 
L 1047.89157 578.359029 
L 1053.79438 503.997949 
L 1059.69719 597.683003 
L 1065.6 623.11662 
L 1071.50281 488.952447 
L 1077.40562 496.630311 
L 1083.30843 468.36306 
L 1089.21124 491.653816 
L 1095.11405 451.848325 
L 1101.01686 532.696223 
L 1106.919669 531.33126 
L 1112.822479 542.309419 
L 1118.725289 599.119128 
L 1124.628099 579.605219 
L 1130.530909 586.863808 
L 1136.433719 571.911953 
L 1142.336529 583.80595 
L 1148.239339 592.516797 
L 1154.142149 583.667166 
L 1160.044959 593.923468 
L 1165.947769 617.646484 
L 1171.850579 551.146233 
L 1177.753388 580.914701 
L 1183.656198 576.005041 
L 1189.559008 593.002345 
L 1195.461818 626.689433 
L 1195.461818 626.689433 
" clip-path="url(#pcd73b1b2ca)" style="fill: none; stroke: #ff7f0e; stroke-width: 1.5; stroke-linecap: square"/>
   </g>
   <g id="patch_3">
    <path d="M 172.8 692.064 
L 172.8 93.312 
" style="fill: none; stroke: #000000; stroke-width: 0.8; stroke-linejoin: miter; stroke-linecap: square"/>
   </g>
   <g id="patch_4">
    <path d="M 1244.16 692.064 
L 1244.16 93.312 
" style="fill: none; stroke: #000000; stroke-width: 0.8; stroke-linejoin: miter; stroke-linecap: square"/>
   </g>
   <g id="patch_5">
    <path d="M 172.8 692.064 
L 1244.16 692.064 
" style="fill: none; stroke: #000000; stroke-width: 0.8; stroke-linejoin: miter; stroke-linecap: square"/>
   </g>
   <g id="patch_6">
    <path d="M 172.8 93.312 
L 1244.16 93.312 
" style="fill: none; stroke: #000000; stroke-width: 0.8; stroke-linejoin: miter; stroke-linecap: square"/>
   </g>
   <g id="text_15">
    <!-- Comparatie intre y si y_rec (PCA(7)) -->
    <g transform="translate(600.744375 87.312) scale(0.12 -0.12)">
     <defs>
      <path id="DejaVuSans-43" d="M 4122 4306 
L 4122 3641 
Q 3803 3938 3442 4084 
Q 3081 4231 2675 4231 
Q 1875 4231 1450 3742 
Q 1025 3253 1025 2328 
Q 1025 1406 1450 917 
Q 1875 428 2675 428 
Q 3081 428 3442 575 
Q 3803 722 4122 1019 
L 4122 359 
Q 3791 134 3420 21 
Q 3050 -91 2638 -91 
Q 1578 -91 968 557 
Q 359 1206 359 2328 
Q 359 3453 968 4101 
Q 1578 4750 2638 4750 
Q 3056 4750 3426 4639 
Q 3797 4528 4122 4306 
z
" transform="scale(0.015625)"/>
      <path id="DejaVuSans-6f" d="M 1959 3097 
Q 1497 3097 1228 2736 
Q 959 2375 959 1747 
Q 959 1119 1226 758 
Q 1494 397 1959 397 
Q 2419 397 2687 759 
Q 2956 1122 2956 1747 
Q 2956 2369 2687 2733 
Q 2419 3097 1959 3097 
z
M 1959 3584 
Q 2709 3584 3137 3096 
Q 3566 2609 3566 1747 
Q 3566 888 3137 398 
Q 2709 -91 1959 -91 
Q 1206 -91 779 398 
Q 353 888 353 1747 
Q 353 2609 779 3096 
Q 1206 3584 1959 3584 
z
" transform="scale(0.015625)"/>
      <path id="DejaVuSans-6d" d="M 3328 2828 
Q 3544 3216 3844 3400 
Q 4144 3584 4550 3584 
Q 5097 3584 5394 3201 
Q 5691 2819 5691 2113 
L 5691 0 
L 5113 0 
L 5113 2094 
Q 5113 2597 4934 2840 
Q 4756 3084 4391 3084 
Q 3944 3084 3684 2787 
Q 3425 2491 3425 1978 
L 3425 0 
L 2847 0 
L 2847 2094 
Q 2847 2600 2669 2842 
Q 2491 3084 2119 3084 
Q 1678 3084 1418 2786 
Q 1159 2488 1159 1978 
L 1159 0 
L 581 0 
L 581 3500 
L 1159 3500 
L 1159 2956 
Q 1356 3278 1631 3431 
Q 1906 3584 2284 3584 
Q 2666 3584 2933 3390 
Q 3200 3197 3328 2828 
z
" transform="scale(0.015625)"/>
      <path id="DejaVuSans-70" d="M 1159 525 
L 1159 -1331 
L 581 -1331 
L 581 3500 
L 1159 3500 
L 1159 2969 
Q 1341 3281 1617 3432 
Q 1894 3584 2278 3584 
Q 2916 3584 3314 3078 
Q 3713 2572 3713 1747 
Q 3713 922 3314 415 
Q 2916 -91 2278 -91 
Q 1894 -91 1617 61 
Q 1341 213 1159 525 
z
M 3116 1747 
Q 3116 2381 2855 2742 
Q 2594 3103 2138 3103 
Q 1681 3103 1420 2742 
Q 1159 2381 1159 1747 
Q 1159 1113 1420 752 
Q 1681 391 2138 391 
Q 2594 391 2855 752 
Q 3116 1113 3116 1747 
z
" transform="scale(0.015625)"/>
      <path id="DejaVuSans-61" d="M 2194 1759 
Q 1497 1759 1228 1600 
Q 959 1441 959 1056 
Q 959 750 1161 570 
Q 1363 391 1709 391 
Q 2188 391 2477 730 
Q 2766 1069 2766 1631 
L 2766 1759 
L 2194 1759 
z
M 3341 1997 
L 3341 0 
L 2766 0 
L 2766 531 
Q 2569 213 2275 61 
Q 1981 -91 1556 -91 
Q 1019 -91 701 211 
Q 384 513 384 1019 
Q 384 1609 779 1909 
Q 1175 2209 1959 2209 
L 2766 2209 
L 2766 2266 
Q 2766 2663 2505 2880 
Q 2244 3097 1772 3097 
Q 1472 3097 1187 3025 
Q 903 2953 641 2809 
L 641 3341 
Q 956 3463 1253 3523 
Q 1550 3584 1831 3584 
Q 2591 3584 2966 3190 
Q 3341 2797 3341 1997 
z
" transform="scale(0.015625)"/>
      <path id="DejaVuSans-72" d="M 2631 2963 
Q 2534 3019 2420 3045 
Q 2306 3072 2169 3072 
Q 1681 3072 1420 2755 
Q 1159 2438 1159 1844 
L 1159 0 
L 581 0 
L 581 3500 
L 1159 3500 
L 1159 2956 
Q 1341 3275 1631 3429 
Q 1922 3584 2338 3584 
Q 2397 3584 2469 3576 
Q 2541 3569 2628 3553 
L 2631 2963 
z
" transform="scale(0.015625)"/>
      <path id="DejaVuSans-74" d="M 1172 4494 
L 1172 3500 
L 2356 3500 
L 2356 3053 
L 1172 3053 
L 1172 1153 
Q 1172 725 1289 603 
Q 1406 481 1766 481 
L 2356 481 
L 2356 0 
L 1766 0 
Q 1100 0 847 248 
Q 594 497 594 1153 
L 594 3053 
L 172 3053 
L 172 3500 
L 594 3500 
L 594 4494 
L 1172 4494 
z
" transform="scale(0.015625)"/>
      <path id="DejaVuSans-69" d="M 603 3500 
L 1178 3500 
L 1178 0 
L 603 0 
L 603 3500 
z
M 603 4863 
L 1178 4863 
L 1178 4134 
L 603 4134 
L 603 4863 
z
" transform="scale(0.015625)"/>
      <path id="DejaVuSans-65" d="M 3597 1894 
L 3597 1613 
L 953 1613 
Q 991 1019 1311 708 
Q 1631 397 2203 397 
Q 2534 397 2845 478 
Q 3156 559 3463 722 
L 3463 178 
Q 3153 47 2828 -22 
Q 2503 -91 2169 -91 
Q 1331 -91 842 396 
Q 353 884 353 1716 
Q 353 2575 817 3079 
Q 1281 3584 2069 3584 
Q 2775 3584 3186 3129 
Q 3597 2675 3597 1894 
z
M 3022 2063 
Q 3016 2534 2758 2815 
Q 2500 3097 2075 3097 
Q 1594 3097 1305 2825 
Q 1016 2553 972 2059 
L 3022 2063 
z
" transform="scale(0.015625)"/>
      <path id="DejaVuSans-20" transform="scale(0.015625)"/>
      <path id="DejaVuSans-6e" d="M 3513 2113 
L 3513 0 
L 2938 0 
L 2938 2094 
Q 2938 2591 2744 2837 
Q 2550 3084 2163 3084 
Q 1697 3084 1428 2787 
Q 1159 2491 1159 1978 
L 1159 0 
L 581 0 
L 581 3500 
L 1159 3500 
L 1159 2956 
Q 1366 3272 1645 3428 
Q 1925 3584 2291 3584 
Q 2894 3584 3203 3211 
Q 3513 2838 3513 2113 
z
" transform="scale(0.015625)"/>
      <path id="DejaVuSans-79" d="M 2059 -325 
Q 1816 -950 1584 -1140 
Q 1353 -1331 966 -1331 
L 506 -1331 
L 506 -850 
L 844 -850 
Q 1081 -850 1212 -737 
Q 1344 -625 1503 -206 
L 1606 56 
L 191 3500 
L 800 3500 
L 1894 763 
L 2988 3500 
L 3597 3500 
L 2059 -325 
z
" transform="scale(0.015625)"/>
      <path id="DejaVuSans-73" d="M 2834 3397 
L 2834 2853 
Q 2591 2978 2328 3040 
Q 2066 3103 1784 3103 
Q 1356 3103 1142 2972 
Q 928 2841 928 2578 
Q 928 2378 1081 2264 
Q 1234 2150 1697 2047 
L 1894 2003 
Q 2506 1872 2764 1633 
Q 3022 1394 3022 966 
Q 3022 478 2636 193 
Q 2250 -91 1575 -91 
Q 1294 -91 989 -36 
Q 684 19 347 128 
L 347 722 
Q 666 556 975 473 
Q 1284 391 1588 391 
Q 1994 391 2212 530 
Q 2431 669 2431 922 
Q 2431 1156 2273 1281 
Q 2116 1406 1581 1522 
L 1381 1569 
Q 847 1681 609 1914 
Q 372 2147 372 2553 
Q 372 3047 722 3315 
Q 1072 3584 1716 3584 
Q 2034 3584 2315 3537 
Q 2597 3491 2834 3397 
z
" transform="scale(0.015625)"/>
      <path id="DejaVuSans-5f" d="M 3263 -1063 
L 3263 -1509 
L -63 -1509 
L -63 -1063 
L 3263 -1063 
z
" transform="scale(0.015625)"/>
      <path id="DejaVuSans-63" d="M 3122 3366 
L 3122 2828 
Q 2878 2963 2633 3030 
Q 2388 3097 2138 3097 
Q 1578 3097 1268 2742 
Q 959 2388 959 1747 
Q 959 1106 1268 751 
Q 1578 397 2138 397 
Q 2388 397 2633 464 
Q 2878 531 3122 666 
L 3122 134 
Q 2881 22 2623 -34 
Q 2366 -91 2075 -91 
Q 1284 -91 818 406 
Q 353 903 353 1747 
Q 353 2603 823 3093 
Q 1294 3584 2113 3584 
Q 2378 3584 2631 3529 
Q 2884 3475 3122 3366 
z
" transform="scale(0.015625)"/>
      <path id="DejaVuSans-28" d="M 1984 4856 
Q 1566 4138 1362 3434 
Q 1159 2731 1159 2009 
Q 1159 1288 1364 580 
Q 1569 -128 1984 -844 
L 1484 -844 
Q 1016 -109 783 600 
Q 550 1309 550 2009 
Q 550 2706 781 3412 
Q 1013 4119 1484 4856 
L 1984 4856 
z
" transform="scale(0.015625)"/>
      <path id="DejaVuSans-50" d="M 1259 4147 
L 1259 2394 
L 2053 2394 
Q 2494 2394 2734 2622 
Q 2975 2850 2975 3272 
Q 2975 3691 2734 3919 
Q 2494 4147 2053 4147 
L 1259 4147 
z
M 628 4666 
L 2053 4666 
Q 2838 4666 3239 4311 
Q 3641 3956 3641 3272 
Q 3641 2581 3239 2228 
Q 2838 1875 2053 1875 
L 1259 1875 
L 1259 0 
L 628 0 
L 628 4666 
z
" transform="scale(0.015625)"/>
      <path id="DejaVuSans-41" d="M 2188 4044 
L 1331 1722 
L 3047 1722 
L 2188 4044 
z
M 1831 4666 
L 2547 4666 
L 4325 0 
L 3669 0 
L 3244 1197 
L 1141 1197 
L 716 0 
L 50 0 
L 1831 4666 
z
" transform="scale(0.015625)"/>
      <path id="DejaVuSans-29" d="M 513 4856 
L 1013 4856 
Q 1481 4119 1714 3412 
Q 1947 2706 1947 2009 
Q 1947 1309 1714 600 
Q 1481 -109 1013 -844 
L 513 -844 
Q 928 -128 1133 580 
Q 1338 1288 1338 2009 
Q 1338 2731 1133 3434 
Q 928 4138 513 4856 
z
" transform="scale(0.015625)"/>
     </defs>
     <use xlink:href="#DejaVuSans-43"/>
     <use xlink:href="#DejaVuSans-6f" transform="translate(69.824219 0)"/>
     <use xlink:href="#DejaVuSans-6d" transform="translate(131.005859 0)"/>
     <use xlink:href="#DejaVuSans-70" transform="translate(228.417969 0)"/>
     <use xlink:href="#DejaVuSans-61" transform="translate(291.894531 0)"/>
     <use xlink:href="#DejaVuSans-72" transform="translate(353.173828 0)"/>
     <use xlink:href="#DejaVuSans-61" transform="translate(394.287109 0)"/>
     <use xlink:href="#DejaVuSans-74" transform="translate(455.566406 0)"/>
     <use xlink:href="#DejaVuSans-69" transform="translate(494.775391 0)"/>
     <use xlink:href="#DejaVuSans-65" transform="translate(522.558594 0)"/>
     <use xlink:href="#DejaVuSans-20" transform="translate(584.082031 0)"/>
     <use xlink:href="#DejaVuSans-69" transform="translate(615.869141 0)"/>
     <use xlink:href="#DejaVuSans-6e" transform="translate(643.652344 0)"/>
     <use xlink:href="#DejaVuSans-74" transform="translate(707.03125 0)"/>
     <use xlink:href="#DejaVuSans-72" transform="translate(746.240234 0)"/>
     <use xlink:href="#DejaVuSans-65" transform="translate(785.103516 0)"/>
     <use xlink:href="#DejaVuSans-20" transform="translate(846.626953 0)"/>
     <use xlink:href="#DejaVuSans-79" transform="translate(878.414062 0)"/>
     <use xlink:href="#DejaVuSans-20" transform="translate(937.59375 0)"/>
     <use xlink:href="#DejaVuSans-73" transform="translate(969.380859 0)"/>
     <use xlink:href="#DejaVuSans-69" transform="translate(1021.480469 0)"/>
     <use xlink:href="#DejaVuSans-20" transform="translate(1049.263672 0)"/>
     <use xlink:href="#DejaVuSans-79" transform="translate(1081.050781 0)"/>
     <use xlink:href="#DejaVuSans-5f" transform="translate(1140.230469 0)"/>
     <use xlink:href="#DejaVuSans-72" transform="translate(1190.230469 0)"/>
     <use xlink:href="#DejaVuSans-65" transform="translate(1229.09375 0)"/>
     <use xlink:href="#DejaVuSans-63" transform="translate(1290.617188 0)"/>
     <use xlink:href="#DejaVuSans-20" transform="translate(1345.597656 0)"/>
     <use xlink:href="#DejaVuSans-28" transform="translate(1377.384766 0)"/>
     <use xlink:href="#DejaVuSans-50" transform="translate(1416.398438 0)"/>
     <use xlink:href="#DejaVuSans-43" transform="translate(1476.701172 0)"/>
     <use xlink:href="#DejaVuSans-41" transform="translate(1546.525391 0)"/>
     <use xlink:href="#DejaVuSans-28" transform="translate(1614.933594 0)"/>
     <use xlink:href="#DejaVuSans-37" transform="translate(1653.947266 0)"/>
     <use xlink:href="#DejaVuSans-29" transform="translate(1717.570312 0)"/>
     <use xlink:href="#DejaVuSans-29" transform="translate(1756.583984 0)"/>
    </g>
   </g>
  </g>
 </g>
 <defs>
  <clipPath id="pcd73b1b2ca">
   <rect x="172.8" y="93.312" width="1071.36" height="598.752"/>
  </clipPath>
 </defs>
</svg>
